0
SECTION
2
HEADER
9
$ACADVER
1
AC1009
9
$INSUNITS
70
1
9
$LUNITS
70
4
0
ENDSEC
0
SECTION
2
TABLES
0
TABLE
2
LTYPE
70
2
0
LTYPE
2
CONTINUOUS
70
0
3
Solid line
72
65
73
0
40
0
0
LTYPE
2
DASHED
70
0
3
__ __ __
72
65
73
2
40
9
49
6
49
-3
0
ENDTAB
0
TABLE
2
LAYER
70
11
0
LAYER
2
A-WALL
70
0
62
7
6
CONTINUOUS
0
LAYER
2
A-WALL-PATT
70
0
62
8
6
CONTINUOUS
0
LAYER
2
A-WALL-HEAD
70
0
62
8
6
DASHED
0
LAYER
2
A-DOOR
70
0
62
2
6
CONTINUOUS
0
LAYER
2
A-GLAZ
70
0
62
4
6
CONTINUOUS
0
LAYER
2
A-FLOR-OTLN
70
0
62
8
6
DASHED
0
LAYER
2
A-AREA-IDEN
70
0
62
7
6
CONTINUOUS
0
LAYER
2
A-ANNO-DIMS
70
0
62
1
6
CONTINUOUS
0
LAYER
2
A-ANNO-SYMB
70
0
62
7
6
CONTINUOUS
0
LAYER
2
A-ANNO-TEXT
70
0
62
7
6
CONTINUOUS
0
LAYER
2
A-ANNO-TTLB
70
0
62
7
6
CONTINUOUS
0
ENDTAB
0
ENDSEC
0
SECTION
2
ENTITIES
0
SOLID
8
A-WALL-PATT
10
132.5000
20
5.0000
30
0
11
277.5000
21
5.0000
31
0
12
132.5000
22
4.5000
32
0
13
277.5000
23
4.5000
33
0
0
SOLID
8
A-WALL-PATT
10
50.0000
20
4.5000
30
0
11
331.0000
21
4.5000
31
0
12
50.0000
22
0.0000
32
0
13
331.0000
23
0.0000
33
0
0
SOLID
8
A-WALL-PATT
10
50.0000
20
0.0000
30
0
11
137.5000
21
0.0000
31
0
12
50.0000
22
-0.5000
32
0
13
137.5000
23
-0.5000
33
0
0
SOLID
8
A-WALL-PATT
10
272.5000
20
0.0000
30
0
11
331.0000
21
0.0000
31
0
12
272.5000
22
-0.5000
32
0
13
331.0000
23
-0.5000
33
0
0
SOLID
8
A-WALL-PATT
10
272.5000
20
-0.5000
30
0
11
278.0000
21
-0.5000
31
0
12
272.5000
22
-4.5000
32
0
13
278.0000
23
-4.5000
33
0
0
SOLID
8
A-WALL-PATT
10
326.0000
20
-0.5000
30
0
11
331.0000
21
-0.5000
31
0
12
326.0000
22
-4.5000
32
0
13
331.0000
23
-4.5000
33
0
0
SOLID
8
A-WALL-PATT
10
326.0000
20
-4.5000
30
0
11
331.0000
21
-4.5000
31
0
12
326.0000
22
-15.5000
32
0
13
331.0000
23
-15.5000
33
0
0
SOLID
8
A-WALL-PATT
10
272.5000
20
-56.5000
30
0
11
278.0000
21
-56.5000
31
0
12
272.5000
22
-57.5000
32
0
13
278.0000
23
-57.5000
33
0
0
SOLID
8
A-WALL-PATT
10
272.5000
20
-57.5000
30
0
11
278.0000
21
-57.5000
31
0
12
272.5000
22
-60.5000
32
0
13
278.0000
23
-60.5000
33
0
0
SOLID
8
A-WALL-PATT
10
326.0000
20
-57.5000
30
0
11
331.0000
21
-57.5000
31
0
12
326.0000
22
-60.5000
32
0
13
331.0000
23
-60.5000
33
0
0
SOLID
8
A-WALL-PATT
10
272.5000
20
-60.5000
30
0
11
278.0000
21
-60.5000
31
0
12
272.5000
22
-61.5000
32
0
13
278.0000
23
-61.5000
33
0
0
SOLID
8
A-WALL-PATT
10
326.0000
20
-60.5000
30
0
11
377.0000
21
-60.5000
31
0
12
326.0000
22
-61.5000
32
0
13
377.0000
23
-61.5000
33
0
0
SOLID
8
A-WALL-PATT
10
272.5000
20
-61.5000
30
0
11
293.7500
21
-61.5000
31
0
12
272.5000
22
-65.5000
32
0
13
293.7500
23
-65.5000
33
0
0
SOLID
8
A-WALL-PATT
10
326.0000
20
-61.5000
30
0
11
377.0000
21
-61.5000
31
0
12
326.0000
22
-65.5000
32
0
13
377.0000
23
-65.5000
33
0
0
SOLID
8
A-WALL-PATT
10
272.5000
20
-65.5000
30
0
11
278.0000
21
-65.5000
31
0
12
272.5000
22
-66.5000
32
0
13
278.0000
23
-66.5000
33
0
0
SOLID
8
A-WALL-PATT
10
372.0000
20
-65.5000
30
0
11
377.0000
21
-65.5000
31
0
12
372.0000
22
-66.5000
32
0
13
377.0000
23
-66.5000
33
0
0
SOLID
8
A-WALL-PATT
10
272.5000
20
-66.5000
30
0
11
278.0000
21
-66.5000
31
0
12
272.5000
22
-79.5000
32
0
13
278.0000
23
-79.5000
33
0
0
SOLID
8
A-WALL-PATT
10
372.0000
20
-66.5000
30
0
11
377.0000
21
-66.5000
31
0
12
372.0000
22
-79.5000
32
0
13
377.0000
23
-79.5000
33
0
0
SOLID
8
A-WALL-PATT
10
50.0000
20
-79.5000
30
0
11
137.5000
21
-79.5000
31
0
12
50.0000
22
-83.5000
32
0
13
137.5000
23
-83.5000
33
0
0
SOLID
8
A-WALL-PATT
10
272.5000
20
-79.5000
30
0
11
278.0000
21
-79.5000
31
0
12
272.5000
22
-83.5000
32
0
13
278.0000
23
-83.5000
33
0
0
SOLID
8
A-WALL-PATT
10
372.0000
20
-79.5000
30
0
11
377.0000
21
-79.5000
31
0
12
372.0000
22
-83.5000
32
0
13
377.0000
23
-83.5000
33
0
0
SOLID
8
A-WALL-PATT
10
-5.5000
20
-83.5000
30
0
11
137.5000
21
-83.5000
31
0
12
-5.5000
22
-84.5000
32
0
13
137.5000
23
-84.5000
33
0
0
SOLID
8
A-WALL-PATT
10
272.5000
20
-83.5000
30
0
11
278.0000
21
-83.5000
31
0
12
272.5000
22
-84.5000
32
0
13
278.0000
23
-84.5000
33
0
0
SOLID
8
A-WALL-PATT
10
372.0000
20
-83.5000
30
0
11
377.0000
21
-83.5000
31
0
12
372.0000
22
-84.5000
32
0
13
377.0000
23
-84.5000
33
0
0
SOLID
8
A-WALL-PATT
10
-5.5000
20
-84.5000
30
0
11
137.5000
21
-84.5000
31
0
12
-5.5000
22
-88.5000
32
0
13
137.5000
23
-88.5000
33
0
0
SOLID
8
A-WALL-PATT
10
272.5000
20
-84.5000
30
0
11
278.0000
21
-84.5000
31
0
12
272.5000
22
-88.5000
32
0
13
278.0000
23
-88.5000
33
0
0
SOLID
8
A-WALL-PATT
10
372.0000
20
-84.5000
30
0
11
377.0000
21
-84.5000
31
0
12
372.0000
22
-88.5000
32
0
13
377.0000
23
-88.5000
33
0
0
SOLID
8
A-WALL-PATT
10
132.5000
20
-88.5000
30
0
11
137.5000
21
-88.5000
31
0
12
132.5000
22
-161.5000
32
0
13
137.5000
23
-161.5000
33
0
0
SOLID
8
A-WALL-PATT
10
272.5000
20
-88.5000
30
0
11
278.0000
21
-88.5000
31
0
12
272.5000
22
-161.5000
32
0
13
278.0000
23
-161.5000
33
0
0
SOLID
8
A-WALL-PATT
10
372.0000
20
-88.5000
30
0
11
377.0000
21
-88.5000
31
0
12
372.0000
22
-161.5000
32
0
13
377.0000
23
-161.5000
33
0
0
SOLID
8
A-WALL-PATT
10
272.5000
20
-161.5000
30
0
11
278.0000
21
-161.5000
31
0
12
272.5000
22
-197.5000
32
0
13
278.0000
23
-197.5000
33
0
0
SOLID
8
A-WALL-PATT
10
372.0000
20
-161.5000
30
0
11
377.0000
21
-161.5000
31
0
12
372.0000
22
-197.5000
32
0
13
377.0000
23
-197.5000
33
0
0
SOLID
8
A-WALL-PATT
10
132.5000
20
-197.5000
30
0
11
137.5000
21
-197.5000
31
0
12
132.5000
22
-201.5000
32
0
13
137.5000
23
-201.5000
33
0
0
SOLID
8
A-WALL-PATT
10
272.5000
20
-197.5000
30
0
11
278.0000
21
-197.5000
31
0
12
272.5000
22
-201.5000
32
0
13
278.0000
23
-201.5000
33
0
0
SOLID
8
A-WALL-PATT
10
372.0000
20
-197.5000
30
0
11
377.0000
21
-197.5000
31
0
12
372.0000
22
-201.5000
32
0
13
377.0000
23
-201.5000
33
0
0
SOLID
8
A-WALL-PATT
10
-5.5000
20
-201.5000
30
0
11
137.5000
21
-201.5000
31
0
12
-5.5000
22
-202.0000
32
0
13
137.5000
23
-202.0000
33
0
0
SOLID
8
A-WALL-PATT
10
272.5000
20
-201.5000
30
0
11
278.0000
21
-201.5000
31
0
12
272.5000
22
-202.0000
32
0
13
278.0000
23
-202.0000
33
0
0
SOLID
8
A-WALL-PATT
10
372.0000
20
-201.5000
30
0
11
377.0000
21
-201.5000
31
0
12
372.0000
22
-202.0000
32
0
13
377.0000
23
-202.0000
33
0
0
SOLID
8
A-WALL-PATT
10
-5.5000
20
-202.0000
30
0
11
137.5000
21
-202.0000
31
0
12
-5.5000
22
-204.0000
32
0
13
137.5000
23
-204.0000
33
0
0
SOLID
8
A-WALL-PATT
10
272.5000
20
-202.0000
30
0
11
278.0000
21
-202.0000
31
0
12
272.5000
22
-204.0000
32
0
13
278.0000
23
-204.0000
33
0
0
SOLID
8
A-WALL-PATT
10
372.0000
20
-202.0000
30
0
11
377.0000
21
-202.0000
31
0
12
372.0000
22
-204.0000
32
0
13
377.0000
23
-204.0000
33
0
0
SOLID
8
A-WALL-PATT
10
-5.5000
20
-204.0000
30
0
11
137.5000
21
-204.0000
31
0
12
-5.5000
22
-204.5000
32
0
13
137.5000
23
-204.5000
33
0
0
SOLID
8
A-WALL-PATT
10
176.5000
20
-204.0000
30
0
11
278.0000
21
-204.0000
31
0
12
176.5000
22
-204.5000
32
0
13
278.0000
23
-204.5000
33
0
0
SOLID
8
A-WALL-PATT
10
372.0000
20
-204.0000
30
0
11
377.0000
21
-204.0000
31
0
12
372.0000
22
-204.5000
32
0
13
377.0000
23
-204.5000
33
0
0
SOLID
8
A-WALL-PATT
10
-5.5000
20
-204.5000
30
0
11
137.5000
21
-204.5000
31
0
12
-5.5000
22
-206.5000
32
0
13
137.5000
23
-206.5000
33
0
0
SOLID
8
A-WALL-PATT
10
176.5000
20
-204.5000
30
0
11
278.0000
21
-204.5000
31
0
12
176.5000
22
-206.5000
32
0
13
278.0000
23
-206.5000
33
0
0
SOLID
8
A-WALL-PATT
10
343.5000
20
-204.5000
30
0
11
377.0000
21
-204.5000
31
0
12
343.5000
22
-206.5000
32
0
13
377.0000
23
-206.5000
33
0
0
SOLID
8
A-WALL-PATT
10
34.0000
20
-206.5000
30
0
11
137.5000
21
-206.5000
31
0
12
34.0000
22
-207.0000
32
0
13
137.5000
23
-207.0000
33
0
0
SOLID
8
A-WALL-PATT
10
176.5000
20
-206.5000
30
0
11
278.0000
21
-206.5000
31
0
12
176.5000
22
-207.0000
32
0
13
278.0000
23
-207.0000
33
0
0
SOLID
8
A-WALL-PATT
10
343.5000
20
-206.5000
30
0
11
377.0000
21
-206.5000
31
0
12
343.5000
22
-207.0000
32
0
13
377.0000
23
-207.0000
33
0
0
SOLID
8
A-WALL-PATT
10
34.0000
20
-207.0000
30
0
11
39.0000
21
-207.0000
31
0
12
34.0000
22
-209.0000
32
0
13
39.0000
23
-209.0000
33
0
0
SOLID
8
A-WALL-PATT
10
133.0000
20
-207.0000
30
0
11
137.5000
21
-207.0000
31
0
12
133.0000
22
-209.0000
32
0
13
137.5000
23
-209.0000
33
0
0
SOLID
8
A-WALL-PATT
10
176.5000
20
-207.0000
30
0
11
278.0000
21
-207.0000
31
0
12
176.5000
22
-209.0000
32
0
13
278.0000
23
-209.0000
33
0
0
SOLID
8
A-WALL-PATT
10
343.5000
20
-207.0000
30
0
11
377.0000
21
-207.0000
31
0
12
343.5000
22
-209.0000
32
0
13
377.0000
23
-209.0000
33
0
0
SOLID
8
A-WALL-PATT
10
34.0000
20
-209.0000
30
0
11
39.0000
21
-209.0000
31
0
12
34.0000
22
-209.5000
32
0
13
39.0000
23
-209.5000
33
0
0
SOLID
8
A-WALL-PATT
10
133.0000
20
-209.0000
30
0
11
138.0000
21
-209.0000
31
0
12
133.0000
22
-209.5000
32
0
13
138.0000
23
-209.5000
33
0
0
SOLID
8
A-WALL-PATT
10
172.0000
20
-209.0000
30
0
11
177.0000
21
-209.0000
31
0
12
172.0000
22
-209.5000
32
0
13
177.0000
23
-209.5000
33
0
0
SOLID
8
A-WALL-PATT
10
273.0000
20
-209.0000
30
0
11
278.0000
21
-209.0000
31
0
12
273.0000
22
-209.5000
32
0
13
278.0000
23
-209.5000
33
0
0
SOLID
8
A-WALL-PATT
10
343.5000
20
-209.0000
30
0
11
377.0000
21
-209.0000
31
0
12
343.5000
22
-209.5000
32
0
13
377.0000
23
-209.5000
33
0
0
SOLID
8
A-WALL-PATT
10
34.0000
20
-209.5000
30
0
11
39.0000
21
-209.5000
31
0
12
34.0000
22
-221.0000
32
0
13
39.0000
23
-221.0000
33
0
0
SOLID
8
A-WALL-PATT
10
133.0000
20
-209.5000
30
0
11
138.0000
21
-209.5000
31
0
12
133.0000
22
-221.0000
32
0
13
138.0000
23
-221.0000
33
0
0
SOLID
8
A-WALL-PATT
10
172.0000
20
-209.5000
30
0
11
177.0000
21
-209.5000
31
0
12
172.0000
22
-221.0000
32
0
13
177.0000
23
-221.0000
33
0
0
SOLID
8
A-WALL-PATT
10
273.0000
20
-209.5000
30
0
11
278.0000
21
-209.5000
31
0
12
273.0000
22
-221.0000
32
0
13
278.0000
23
-221.0000
33
0
0
SOLID
8
A-WALL-PATT
10
368.0000
20
-209.5000
30
0
11
373.0000
21
-209.5000
31
0
12
368.0000
22
-221.0000
32
0
13
373.0000
23
-221.0000
33
0
0
SOLID
8
A-WALL-PATT
10
34.0000
20
-221.0000
30
0
11
39.0000
21
-221.0000
31
0
12
34.0000
22
-251.0000
32
0
13
39.0000
23
-251.0000
33
0
0
SOLID
8
A-WALL-PATT
10
133.0000
20
-221.0000
30
0
11
138.0000
21
-221.0000
31
0
12
133.0000
22
-251.0000
32
0
13
138.0000
23
-251.0000
33
0
0
SOLID
8
A-WALL-PATT
10
273.0000
20
-221.0000
30
0
11
278.0000
21
-221.0000
31
0
12
273.0000
22
-251.0000
32
0
13
278.0000
23
-251.0000
33
0
0
SOLID
8
A-WALL-PATT
10
368.0000
20
-221.0000
30
0
11
373.0000
21
-221.0000
31
0
12
368.0000
22
-251.0000
32
0
13
373.0000
23
-251.0000
33
0
0
SOLID
8
A-WALL-PATT
10
34.0000
20
-251.0000
30
0
11
39.0000
21
-251.0000
31
0
12
34.0000
22
-256.5000
32
0
13
39.0000
23
-256.5000
33
0
0
SOLID
8
A-WALL-PATT
10
133.0000
20
-251.0000
30
0
11
138.0000
21
-251.0000
31
0
12
133.0000
22
-256.5000
32
0
13
138.0000
23
-256.5000
33
0
0
SOLID
8
A-WALL-PATT
10
172.0000
20
-251.0000
30
0
11
177.0000
21
-251.0000
31
0
12
172.0000
22
-256.5000
32
0
13
177.0000
23
-256.5000
33
0
0
SOLID
8
A-WALL-PATT
10
273.0000
20
-251.0000
30
0
11
278.0000
21
-251.0000
31
0
12
273.0000
22
-256.5000
32
0
13
278.0000
23
-256.5000
33
0
0
SOLID
8
A-WALL-PATT
10
368.0000
20
-251.0000
30
0
11
373.0000
21
-251.0000
31
0
12
368.0000
22
-256.5000
32
0
13
373.0000
23
-256.5000
33
0
0
SOLID
8
A-WALL-PATT
10
34.0000
20
-256.5000
30
0
11
39.0000
21
-256.5000
31
0
12
34.0000
22
-260.0000
32
0
13
39.0000
23
-260.0000
33
0
0
SOLID
8
A-WALL-PATT
10
133.0000
20
-256.5000
30
0
11
138.0000
21
-256.5000
31
0
12
133.0000
22
-260.0000
32
0
13
138.0000
23
-260.0000
33
0
0
SOLID
8
A-WALL-PATT
10
172.0000
20
-256.5000
30
0
11
177.0000
21
-256.5000
31
0
12
172.0000
22
-260.0000
32
0
13
177.0000
23
-260.0000
33
0
0
SOLID
8
A-WALL-PATT
10
273.0000
20
-256.5000
30
0
11
278.0000
21
-256.5000
31
0
12
273.0000
22
-260.0000
32
0
13
278.0000
23
-260.0000
33
0
0
SOLID
8
A-WALL-PATT
10
368.0000
20
-256.5000
30
0
11
373.0000
21
-256.5000
31
0
12
368.0000
22
-260.0000
32
0
13
373.0000
23
-260.0000
33
0
0
SOLID
8
A-WALL-PATT
10
-5.5000
20
-260.0000
30
0
11
39.0000
21
-260.0000
31
0
12
-5.5000
22
-261.0000
32
0
13
39.0000
23
-261.0000
33
0
0
SOLID
8
A-WALL-PATT
10
133.0000
20
-260.0000
30
0
11
138.0000
21
-260.0000
31
0
12
133.0000
22
-261.0000
32
0
13
138.0000
23
-261.0000
33
0
0
SOLID
8
A-WALL-PATT
10
172.0000
20
-260.0000
30
0
11
177.0000
21
-260.0000
31
0
12
172.0000
22
-261.0000
32
0
13
177.0000
23
-261.0000
33
0
0
SOLID
8
A-WALL-PATT
10
273.0000
20
-260.0000
30
0
11
278.0000
21
-260.0000
31
0
12
273.0000
22
-261.0000
32
0
13
278.0000
23
-261.0000
33
0
0
SOLID
8
A-WALL-PATT
10
368.0000
20
-260.0000
30
0
11
373.0000
21
-260.0000
31
0
12
368.0000
22
-261.0000
32
0
13
373.0000
23
-261.0000
33
0
0
SOLID
8
A-WALL-PATT
10
-5.5000
20
-261.0000
30
0
11
77.0000
21
-261.0000
31
0
12
-5.5000
22
-261.5000
32
0
13
77.0000
23
-261.5000
33
0
0
SOLID
8
A-WALL-PATT
10
107.0000
20
-261.0000
30
0
11
138.0000
21
-261.0000
31
0
12
107.0000
22
-261.5000
32
0
13
138.0000
23
-261.5000
33
0
0
SOLID
8
A-WALL-PATT
10
172.0000
20
-261.0000
30
0
11
177.0000
21
-261.0000
31
0
12
172.0000
22
-261.5000
32
0
13
177.0000
23
-261.5000
33
0
0
SOLID
8
A-WALL-PATT
10
273.0000
20
-261.0000
30
0
11
278.0000
21
-261.0000
31
0
12
273.0000
22
-261.5000
32
0
13
278.0000
23
-261.5000
33
0
0
SOLID
8
A-WALL-PATT
10
368.0000
20
-261.0000
30
0
11
373.0000
21
-261.0000
31
0
12
368.0000
22
-261.5000
32
0
13
373.0000
23
-261.5000
33
0
0
SOLID
8
A-WALL-PATT
10
-5.5000
20
-261.5000
30
0
11
77.0000
21
-261.5000
31
0
12
-5.5000
22
-262.0000
32
0
13
77.0000
23
-262.0000
33
0
0
SOLID
8
A-WALL-PATT
10
107.0000
20
-261.5000
30
0
11
138.0000
21
-261.5000
31
0
12
107.0000
22
-262.0000
32
0
13
138.0000
23
-262.0000
33
0
0
SOLID
8
A-WALL-PATT
10
172.0000
20
-261.5000
30
0
11
177.0000
21
-261.5000
31
0
12
172.0000
22
-262.0000
32
0
13
177.0000
23
-262.0000
33
0
0
SOLID
8
A-WALL-PATT
10
273.0000
20
-261.5000
30
0
11
278.0000
21
-261.5000
31
0
12
273.0000
22
-262.0000
32
0
13
278.0000
23
-262.0000
33
0
0
SOLID
8
A-WALL-PATT
10
-5.5000
20
-262.0000
30
0
11
77.0000
21
-262.0000
31
0
12
-5.5000
22
-262.5000
32
0
13
77.0000
23
-262.5000
33
0
0
SOLID
8
A-WALL-PATT
10
107.0000
20
-262.0000
30
0
11
138.0000
21
-262.0000
31
0
12
107.0000
22
-262.5000
32
0
13
138.0000
23
-262.5000
33
0
0
SOLID
8
A-WALL-PATT
10
172.0000
20
-262.0000
30
0
11
177.0000
21
-262.0000
31
0
12
172.0000
22
-262.5000
32
0
13
177.0000
23
-262.5000
33
0
0
SOLID
8
A-WALL-PATT
10
273.0000
20
-262.0000
30
0
11
278.0000
21
-262.0000
31
0
12
273.0000
22
-262.5000
32
0
13
278.0000
23
-262.5000
33
0
0
SOLID
8
A-WALL-PATT
10
-5.5000
20
-262.5000
30
0
11
77.0000
21
-262.5000
31
0
12
-5.5000
22
-263.0000
32
0
13
77.0000
23
-263.0000
33
0
0
SOLID
8
A-WALL-PATT
10
107.0000
20
-262.5000
30
0
11
138.0000
21
-262.5000
31
0
12
107.0000
22
-263.0000
32
0
13
138.0000
23
-263.0000
33
0
0
SOLID
8
A-WALL-PATT
10
172.0000
20
-262.5000
30
0
11
177.0000
21
-262.5000
31
0
12
172.0000
22
-263.0000
32
0
13
177.0000
23
-263.0000
33
0
0
SOLID
8
A-WALL-PATT
10
273.0000
20
-262.5000
30
0
11
278.0000
21
-262.5000
31
0
12
273.0000
22
-263.0000
32
0
13
278.0000
23
-263.0000
33
0
0
SOLID
8
A-WALL-PATT
10
-5.5000
20
-263.0000
30
0
11
77.0000
21
-263.0000
31
0
12
-5.5000
22
-265.0000
32
0
13
77.0000
23
-265.0000
33
0
0
SOLID
8
A-WALL-PATT
10
107.0000
20
-263.0000
30
0
11
138.0000
21
-263.0000
31
0
12
107.0000
22
-265.0000
32
0
13
138.0000
23
-265.0000
33
0
0
SOLID
8
A-WALL-PATT
10
172.0000
20
-263.0000
30
0
11
278.0000
21
-263.0000
31
0
12
172.0000
22
-265.0000
32
0
13
278.0000
23
-265.0000
33
0
0
SOLID
8
A-WALL-PATT
10
132.5000
20
-265.0000
30
0
11
138.0000
21
-265.0000
31
0
12
132.5000
22
-266.0000
32
0
13
138.0000
23
-266.0000
33
0
0
SOLID
8
A-WALL-PATT
10
172.0000
20
-265.0000
30
0
11
278.0000
21
-265.0000
31
0
12
172.0000
22
-266.0000
32
0
13
278.0000
23
-266.0000
33
0
0
SOLID
8
A-WALL-PATT
10
132.5000
20
-266.0000
30
0
11
137.5000
21
-266.0000
31
0
12
132.5000
22
-267.5000
32
0
13
137.5000
23
-267.5000
33
0
0
SOLID
8
A-WALL-PATT
10
172.0000
20
-266.0000
30
0
11
278.0000
21
-266.0000
31
0
12
172.0000
22
-267.5000
32
0
13
278.0000
23
-267.5000
33
0
0
SOLID
8
A-WALL-PATT
10
132.5000
20
-267.5000
30
0
11
137.5000
21
-267.5000
31
0
12
132.5000
22
-268.0000
32
0
13
137.5000
23
-268.0000
33
0
0
SOLID
8
A-WALL-PATT
10
172.0000
20
-267.5000
30
0
11
177.0000
21
-267.5000
31
0
12
172.0000
22
-268.0000
32
0
13
177.0000
23
-268.0000
33
0
0
SOLID
8
A-WALL-PATT
10
273.0000
20
-267.5000
30
0
11
278.0000
21
-267.5000
31
0
12
273.0000
22
-268.0000
32
0
13
278.0000
23
-268.0000
33
0
0
SOLID
8
A-WALL-PATT
10
132.5000
20
-268.0000
30
0
11
137.5000
21
-268.0000
31
0
12
132.5000
22
-269.0000
32
0
13
137.5000
23
-269.0000
33
0
0
SOLID
8
A-WALL-PATT
10
172.0000
20
-268.0000
30
0
11
177.0000
21
-268.0000
31
0
12
172.0000
22
-269.0000
32
0
13
177.0000
23
-269.0000
33
0
0
SOLID
8
A-WALL-PATT
10
273.0000
20
-268.0000
30
0
11
278.0000
21
-268.0000
31
0
12
273.0000
22
-269.0000
32
0
13
278.0000
23
-269.0000
33
0
0
SOLID
8
A-WALL-PATT
10
172.0000
20
-269.0000
30
0
11
177.0000
21
-269.0000
31
0
12
172.0000
22
-305.0000
32
0
13
177.0000
23
-305.0000
33
0
0
SOLID
8
A-WALL-PATT
10
273.0000
20
-269.0000
30
0
11
278.0000
21
-269.0000
31
0
12
273.0000
22
-305.0000
32
0
13
278.0000
23
-305.0000
33
0
0
SOLID
8
A-WALL-PATT
10
132.5000
20
-305.0000
30
0
11
137.5000
21
-305.0000
31
0
12
132.5000
22
-322.5000
32
0
13
137.5000
23
-322.5000
33
0
0
SOLID
8
A-WALL-PATT
10
172.0000
20
-305.0000
30
0
11
177.0000
21
-305.0000
31
0
12
172.0000
22
-322.5000
32
0
13
177.0000
23
-322.5000
33
0
0
SOLID
8
A-WALL-PATT
10
273.0000
20
-305.0000
30
0
11
278.0000
21
-305.0000
31
0
12
273.0000
22
-322.5000
32
0
13
278.0000
23
-322.5000
33
0
0
SOLID
8
A-WALL-PATT
10
132.5000
20
-322.5000
30
0
11
139.0000
21
-322.5000
31
0
12
132.5000
22
-327.5000
32
0
13
139.0000
23
-327.5000
33
0
0
SOLID
8
A-WALL-PATT
10
175.0000
20
-322.5000
30
0
11
210.0000
21
-322.5000
31
0
12
175.0000
22
-327.5000
32
0
13
210.0000
23
-327.5000
33
0
0
SOLID
8
A-WALL-PATT
10
240.0000
20
-322.5000
30
0
11
281.0000
21
-322.5000
31
0
12
240.0000
22
-327.5000
32
0
13
281.0000
23
-327.5000
33
0
0
SOLID
8
A-WALL-PATT
10
132.5000
20
-327.5000
30
0
11
138.0000
21
-327.5000
31
0
12
132.5000
22
-385.0000
32
0
13
138.0000
23
-385.0000
33
0
0
SOLID
8
A-WALL-PATT
10
276.0000
20
-327.5000
30
0
11
281.0000
21
-327.5000
31
0
12
276.0000
22
-385.0000
32
0
13
281.0000
23
-385.0000
33
0
0
SOLID
8
A-WALL-PATT
10
-5.5000
20
-385.0000
30
0
11
138.0000
21
-385.0000
31
0
12
-5.5000
22
-385.5000
32
0
13
138.0000
23
-385.5000
33
0
0
SOLID
8
A-WALL-PATT
10
276.0000
20
-385.0000
30
0
11
281.0000
21
-385.0000
31
0
12
276.0000
22
-385.5000
32
0
13
281.0000
23
-385.5000
33
0
0
SOLID
8
A-WALL-PATT
10
-5.5000
20
-385.5000
30
0
11
138.0000
21
-385.5000
31
0
12
-5.5000
22
-390.0000
32
0
13
138.0000
23
-390.0000
33
0
0
SOLID
8
A-WALL-PATT
10
276.0000
20
-385.5000
30
0
11
281.0000
21
-385.5000
31
0
12
276.0000
22
-390.0000
32
0
13
281.0000
23
-390.0000
33
0
0
SOLID
8
A-WALL-PATT
10
56.0000
20
-390.0000
30
0
11
138.0000
21
-390.0000
31
0
12
56.0000
22
-390.5000
32
0
13
138.0000
23
-390.5000
33
0
0
SOLID
8
A-WALL-PATT
10
276.0000
20
-390.0000
30
0
11
281.0000
21
-390.0000
31
0
12
276.0000
22
-390.5000
32
0
13
281.0000
23
-390.5000
33
0
0
SOLID
8
A-WALL-PATT
10
276.0000
20
-390.5000
30
0
11
281.0000
21
-390.5000
31
0
12
276.0000
22
-449.5000
32
0
13
281.0000
23
-449.5000
33
0
0
SOLID
8
A-WALL-PATT
10
56.0000
20
-449.5000
30
0
11
138.0000
21
-449.5000
31
0
12
56.0000
22
-454.5000
32
0
13
138.0000
23
-454.5000
33
0
0
SOLID
8
A-WALL-PATT
10
276.0000
20
-449.5000
30
0
11
281.0000
21
-449.5000
31
0
12
276.0000
22
-454.5000
32
0
13
281.0000
23
-454.5000
33
0
0
SOLID
8
A-WALL-PATT
10
133.0000
20
-454.5000
30
0
11
138.0000
21
-454.5000
31
0
12
133.0000
22
-458.5000
32
0
13
138.0000
23
-458.5000
33
0
0
SOLID
8
A-WALL-PATT
10
276.0000
20
-454.5000
30
0
11
281.0000
21
-454.5000
31
0
12
276.0000
22
-458.5000
32
0
13
281.0000
23
-458.5000
33
0
0
SOLID
8
A-WALL-PATT
10
133.0000
20
-458.5000
30
0
11
281.0000
21
-458.5000
31
0
12
133.0000
22
-463.5000
32
0
13
281.0000
23
-463.5000
33
0
0
LINE
8
A-WALL
10
132.5000
20
5.0000
30
0
11
277.5000
21
5.0000
31
0
0
LINE
8
A-WALL
10
50.0000
20
4.5000
30
0
11
132.5000
21
4.5000
31
0
0
LINE
8
A-WALL
10
277.5000
20
4.5000
30
0
11
331.0000
21
4.5000
31
0
0
LINE
8
A-WALL
10
137.5000
20
0.0000
30
0
11
272.5000
21
0.0000
31
0
0
LINE
8
A-WALL
10
50.0000
20
-0.5000
30
0
11
137.5000
21
-0.5000
31
0
0
LINE
8
A-WALL
10
278.0000
20
-0.5000
30
0
11
326.0000
21
-0.5000
31
0
0
LINE
8
A-WALL
10
272.5000
20
-4.5000
30
0
11
278.0000
21
-4.5000
31
0
0
LINE
8
A-WALL
10
326.0000
20
-15.5000
30
0
11
331.0000
21
-15.5000
31
0
0
LINE
8
A-WALL
10
272.5000
20
-56.5000
30
0
11
278.0000
21
-56.5000
31
0
0
LINE
8
A-WALL
10
326.0000
20
-57.5000
30
0
11
331.0000
21
-57.5000
31
0
0
LINE
8
A-WALL
10
331.0000
20
-60.5000
30
0
11
377.0000
21
-60.5000
31
0
0
LINE
8
A-WALL
10
278.0000
20
-61.5000
30
0
11
293.7500
21
-61.5000
31
0
0
LINE
8
A-WALL
10
278.0000
20
-65.5000
30
0
11
293.7500
21
-65.5000
31
0
0
LINE
8
A-WALL
10
326.0000
20
-65.5000
30
0
11
372.0000
21
-65.5000
31
0
0
LINE
8
A-WALL
10
50.0000
20
-79.5000
30
0
11
137.5000
21
-79.5000
31
0
0
LINE
8
A-WALL
10
-5.5000
20
-83.5000
30
0
11
50.0000
21
-83.5000
31
0
0
LINE
8
A-WALL
10
-5.5000
20
-88.5000
30
0
11
132.5000
21
-88.5000
31
0
0
LINE
8
A-WALL
10
132.5000
20
-161.5000
30
0
11
137.5000
21
-161.5000
31
0
0
LINE
8
A-WALL
10
132.5000
20
-197.5000
30
0
11
137.5000
21
-197.5000
31
0
0
LINE
8
A-WALL
10
-5.5000
20
-201.5000
30
0
11
132.5000
21
-201.5000
31
0
0
LINE
8
A-WALL
10
176.5000
20
-204.0000
30
0
11
272.5000
21
-204.0000
31
0
0
LINE
8
A-WALL
10
-5.5000
20
-206.5000
30
0
11
34.0000
21
-206.5000
31
0
0
LINE
8
A-WALL
10
343.5000
20
-204.5000
30
0
11
372.0000
21
-204.5000
31
0
0
LINE
8
A-WALL
10
39.0000
20
-207.0000
30
0
11
133.0000
21
-207.0000
31
0
0
LINE
8
A-WALL
10
137.5000
20
-209.0000
30
0
11
138.0000
21
-209.0000
31
0
0
LINE
8
A-WALL
10
172.0000
20
-209.0000
30
0
11
176.5000
21
-209.0000
31
0
0
LINE
8
A-WALL
10
177.0000
20
-209.0000
30
0
11
273.0000
21
-209.0000
31
0
0
LINE
8
A-WALL
10
343.5000
20
-209.5000
30
0
11
368.0000
21
-209.5000
31
0
0
LINE
8
A-WALL
10
373.0000
20
-209.5000
30
0
11
377.0000
21
-209.5000
31
0
0
LINE
8
A-WALL
10
172.0000
20
-221.0000
30
0
11
177.0000
21
-221.0000
31
0
0
LINE
8
A-WALL
10
172.0000
20
-251.0000
30
0
11
177.0000
21
-251.0000
31
0
0
LINE
8
A-WALL
10
-5.5000
20
-260.0000
30
0
11
34.0000
21
-260.0000
31
0
0
LINE
8
A-WALL
10
39.0000
20
-261.0000
30
0
11
77.0000
21
-261.0000
31
0
0
LINE
8
A-WALL
10
107.0000
20
-261.0000
30
0
11
133.0000
21
-261.0000
31
0
0
LINE
8
A-WALL
10
368.0000
20
-261.5000
30
0
11
373.0000
21
-261.5000
31
0
0
LINE
8
A-WALL
10
-5.5000
20
-265.0000
30
0
11
77.0000
21
-265.0000
31
0
0
LINE
8
A-WALL
10
107.0000
20
-265.0000
30
0
11
132.5000
21
-265.0000
31
0
0
LINE
8
A-WALL
10
177.0000
20
-263.0000
30
0
11
273.0000
21
-263.0000
31
0
0
LINE
8
A-WALL
10
137.5000
20
-266.0000
30
0
11
138.0000
21
-266.0000
31
0
0
LINE
8
A-WALL
10
177.0000
20
-267.5000
30
0
11
273.0000
21
-267.5000
31
0
0
LINE
8
A-WALL
10
132.5000
20
-269.0000
30
0
11
137.5000
21
-269.0000
31
0
0
LINE
8
A-WALL
10
132.5000
20
-305.0000
30
0
11
137.5000
21
-305.0000
31
0
0
LINE
8
A-WALL
10
137.5000
20
-322.5000
30
0
11
139.0000
21
-322.5000
31
0
0
LINE
8
A-WALL
10
172.0000
20
-322.5000
30
0
11
175.0000
21
-322.5000
31
0
0
LINE
8
A-WALL
10
177.0000
20
-322.5000
30
0
11
210.0000
21
-322.5000
31
0
0
LINE
8
A-WALL
10
240.0000
20
-322.5000
30
0
11
273.0000
21
-322.5000
31
0
0
LINE
8
A-WALL
10
278.0000
20
-322.5000
30
0
11
281.0000
21
-322.5000
31
0
0
LINE
8
A-WALL
10
138.0000
20
-327.5000
30
0
11
139.0000
21
-327.5000
31
0
0
LINE
8
A-WALL
10
175.0000
20
-327.5000
30
0
11
210.0000
21
-327.5000
31
0
0
LINE
8
A-WALL
10
240.0000
20
-327.5000
30
0
11
276.0000
21
-327.5000
31
0
0
LINE
8
A-WALL
10
-5.5000
20
-385.0000
30
0
11
132.5000
21
-385.0000
31
0
0
LINE
8
A-WALL
10
-5.5000
20
-390.0000
30
0
11
56.0000
21
-390.0000
31
0
0
LINE
8
A-WALL
10
56.0000
20
-390.5000
30
0
11
138.0000
21
-390.5000
31
0
0
LINE
8
A-WALL
10
56.0000
20
-449.5000
30
0
11
138.0000
21
-449.5000
31
0
0
LINE
8
A-WALL
10
56.0000
20
-454.5000
30
0
11
133.0000
21
-454.5000
31
0
0
LINE
8
A-WALL
10
133.0000
20
-463.5000
30
0
11
281.0000
21
-463.5000
31
0
0
LINE
8
A-WALL
10
138.0000
20
-458.5000
30
0
11
276.0000
21
-458.5000
31
0
0
LINE
8
A-WALL
10
132.5000
20
5.0000
30
0
11
132.5000
21
4.5000
31
0
0
LINE
8
A-WALL
10
132.5000
20
-88.5000
30
0
11
132.5000
21
-161.5000
31
0
0
LINE
8
A-WALL
10
132.5000
20
-197.5000
30
0
11
132.5000
21
-201.5000
31
0
0
LINE
8
A-WALL
10
132.5000
20
-265.0000
30
0
11
132.5000
21
-269.0000
31
0
0
LINE
8
A-WALL
10
132.5000
20
-305.0000
30
0
11
132.5000
21
-385.0000
31
0
0
LINE
8
A-WALL
10
277.5000
20
5.0000
30
0
11
277.5000
21
4.5000
31
0
0
LINE
8
A-WALL
10
50.0000
20
4.5000
30
0
11
50.0000
21
-0.5000
31
0
0
LINE
8
A-WALL
10
50.0000
20
-79.5000
30
0
11
50.0000
21
-83.5000
31
0
0
LINE
8
A-WALL
10
331.0000
20
4.5000
30
0
11
331.0000
21
-15.5000
31
0
0
LINE
8
A-WALL
10
331.0000
20
-57.5000
30
0
11
331.0000
21
-60.5000
31
0
0
LINE
8
A-WALL
10
137.5000
20
0.0000
30
0
11
137.5000
21
-0.5000
31
0
0
LINE
8
A-WALL
10
137.5000
20
-79.5000
30
0
11
137.5000
21
-161.5000
31
0
0
LINE
8
A-WALL
10
137.5000
20
-197.5000
30
0
11
137.5000
21
-209.0000
31
0
0
LINE
8
A-WALL
10
137.5000
20
-266.0000
30
0
11
137.5000
21
-269.0000
31
0
0
LINE
8
A-WALL
10
137.5000
20
-305.0000
30
0
11
137.5000
21
-322.5000
31
0
0
LINE
8
A-WALL
10
272.5000
20
0.0000
30
0
11
272.5000
21
-4.5000
31
0
0
LINE
8
A-WALL
10
272.5000
20
-56.5000
30
0
11
272.5000
21
-204.0000
31
0
0
LINE
8
A-WALL
10
278.0000
20
-0.5000
30
0
11
278.0000
21
-4.5000
31
0
0
LINE
8
A-WALL
10
278.0000
20
-56.5000
30
0
11
278.0000
21
-61.5000
31
0
0
LINE
8
A-WALL
10
278.0000
20
-65.5000
30
0
11
278.0000
21
-322.5000
31
0
0
LINE
8
A-WALL
10
326.0000
20
-0.5000
30
0
11
326.0000
21
-15.5000
31
0
0
LINE
8
A-WALL
10
326.0000
20
-57.5000
30
0
11
326.0000
21
-65.5000
31
0
0
LINE
8
A-WALL
10
377.0000
20
-60.5000
30
0
11
377.0000
21
-209.5000
31
0
0
LINE
8
A-WALL
10
293.7500
20
-61.5000
30
0
11
293.7500
21
-65.5000
31
0
0
LINE
8
A-WALL
10
372.0000
20
-65.5000
30
0
11
372.0000
21
-204.5000
31
0
0
LINE
8
A-WALL
10
-5.5000
20
-83.5000
30
0
11
-5.5000
21
-88.5000
31
0
0
LINE
8
A-WALL
10
-5.5000
20
-201.5000
30
0
11
-5.5000
21
-206.5000
31
0
0
LINE
8
A-WALL
10
-5.5000
20
-260.0000
30
0
11
-5.5000
21
-265.0000
31
0
0
LINE
8
A-WALL
10
-5.5000
20
-385.0000
30
0
11
-5.5000
21
-390.0000
31
0
0
LINE
8
A-WALL
10
176.5000
20
-204.0000
30
0
11
176.5000
21
-209.0000
31
0
0
LINE
8
A-WALL
10
343.5000
20
-204.5000
30
0
11
343.5000
21
-209.5000
31
0
0
LINE
8
A-WALL
10
34.0000
20
-206.5000
30
0
11
34.0000
21
-260.0000
31
0
0
LINE
8
A-WALL
10
39.0000
20
-207.0000
30
0
11
39.0000
21
-261.0000
31
0
0
LINE
8
A-WALL
10
133.0000
20
-207.0000
30
0
11
133.0000
21
-261.0000
31
0
0
LINE
8
A-WALL
10
133.0000
20
-454.5000
30
0
11
133.0000
21
-463.5000
31
0
0
LINE
8
A-WALL
10
138.0000
20
-209.0000
30
0
11
138.0000
21
-266.0000
31
0
0
LINE
8
A-WALL
10
138.0000
20
-327.5000
30
0
11
138.0000
21
-390.5000
31
0
0
LINE
8
A-WALL
10
138.0000
20
-449.5000
30
0
11
138.0000
21
-458.5000
31
0
0
LINE
8
A-WALL
10
172.0000
20
-209.0000
30
0
11
172.0000
21
-221.0000
31
0
0
LINE
8
A-WALL
10
172.0000
20
-251.0000
30
0
11
172.0000
21
-322.5000
31
0
0
LINE
8
A-WALL
10
177.0000
20
-209.0000
30
0
11
177.0000
21
-221.0000
31
0
0
LINE
8
A-WALL
10
177.0000
20
-251.0000
30
0
11
177.0000
21
-263.0000
31
0
0
LINE
8
A-WALL
10
177.0000
20
-267.5000
30
0
11
177.0000
21
-322.5000
31
0
0
LINE
8
A-WALL
10
273.0000
20
-209.0000
30
0
11
273.0000
21
-263.0000
31
0
0
LINE
8
A-WALL
10
273.0000
20
-267.5000
30
0
11
273.0000
21
-322.5000
31
0
0
LINE
8
A-WALL
10
368.0000
20
-209.5000
30
0
11
368.0000
21
-261.5000
31
0
0
LINE
8
A-WALL
10
373.0000
20
-209.5000
30
0
11
373.0000
21
-261.5000
31
0
0
LINE
8
A-WALL
10
77.0000
20
-261.0000
30
0
11
77.0000
21
-265.0000
31
0
0
LINE
8
A-WALL
10
107.0000
20
-261.0000
30
0
11
107.0000
21
-265.0000
31
0
0
LINE
8
A-WALL
10
139.0000
20
-322.5000
30
0
11
139.0000
21
-327.5000
31
0
0
LINE
8
A-WALL
10
175.0000
20
-322.5000
30
0
11
175.0000
21
-327.5000
31
0
0
LINE
8
A-WALL
10
210.0000
20
-322.5000
30
0
11
210.0000
21
-327.5000
31
0
0
LINE
8
A-WALL
10
240.0000
20
-322.5000
30
0
11
240.0000
21
-327.5000
31
0
0
LINE
8
A-WALL
10
281.0000
20
-322.5000
30
0
11
281.0000
21
-463.5000
31
0
0
LINE
8
A-WALL
10
276.0000
20
-327.5000
30
0
11
276.0000
21
-458.5000
31
0
0
LINE
8
A-WALL
10
56.0000
20
-390.0000
30
0
11
56.0000
21
-390.5000
31
0
0
LINE
8
A-WALL
10
56.0000
20
-449.5000
30
0
11
56.0000
21
-454.5000
31
0
0
LINE
8
A-WALL-HEAD
10
137.5000
20
-204.0000
30
0
11
176.5000
21
-204.0000
31
0
0
LINE
8
A-WALL-HEAD
10
137.5000
20
-209.0000
30
0
11
176.5000
21
-209.0000
31
0
0
CIRCLE
8
A-ANNO-SYMB
10
157.0000
20
-218.4488
30
0
40
5.9055
0
TEXT
8
A-ANNO-SYMB
10
157.0000
20
-218.4488
30
0
40
2.9528
1
OP2
72
1
11
157.0000
21
-218.4488
31
0
73
2
0
LINE
8
A-GLAZ
10
-5.5000
20
-88.5000
30
0
11
-5.5000
21
-201.5000
31
0
0
LINE
8
A-GLAZ
10
-0.5000
20
-88.5000
30
0
11
-0.5000
21
-201.5000
31
0
0
LINE
8
A-GLAZ
10
-3.7874
20
-88.5000
30
0
11
-3.7874
21
-201.5000
31
0
0
LINE
8
A-GLAZ
10
-2.2126
20
-88.5000
30
0
11
-2.2126
21
-201.5000
31
0
0
CIRCLE
8
A-ANNO-SYMB
10
-14.9488
20
-145.0000
30
0
40
5.9055
0
TEXT
8
A-ANNO-SYMB
10
-14.9488
20
-145.0000
30
0
40
2.9528
1
W2
72
1
11
-14.9488
21
-145.0000
31
0
73
2
0
POLYLINE
8
A-DOOR
66
1
10
0
20
0
30
0
70
1
0
VERTEX
8
A-DOOR
10
132.5000
20
-197.5000
30
0
0
VERTEX
8
A-DOOR
10
132.5000
20
-196.1220
30
0
0
VERTEX
8
A-DOOR
10
96.5000
20
-196.1220
30
0
0
VERTEX
8
A-DOOR
10
96.5000
20
-197.5000
30
0
0
SEQEND
8
A-DOOR
0
ARC
8
A-DOOR
10
132.5000
20
-197.5000
30
0
40
36.0000
50
90.0000
51
180.0000
0
CIRCLE
8
A-ANNO-SYMB
10
146.9488
20
-179.5000
30
0
40
5.9055
0
TEXT
8
A-ANNO-SYMB
10
146.9488
20
-179.5000
30
0
40
2.9528
1
D2
72
1
11
146.9488
21
-179.5000
31
0
73
2
0
POLYLINE
8
A-DOOR
66
1
10
0
20
0
30
0
70
1
0
VERTEX
8
A-DOOR
10
107.0000
20
-261.0000
30
0
0
VERTEX
8
A-DOOR
10
105.6220
20
-261.0000
30
0
0
VERTEX
8
A-DOOR
10
105.6220
20
-231.0000
30
0
0
VERTEX
8
A-DOOR
10
107.0000
20
-231.0000
30
0
0
SEQEND
8
A-DOOR
0
ARC
8
A-DOOR
10
107.0000
20
-261.0000
30
0
40
30.0000
50
90.0000
51
180.0000
0
CIRCLE
8
A-ANNO-SYMB
10
92.0000
20
-274.4488
30
0
40
5.9055
0
TEXT
8
A-ANNO-SYMB
10
92.0000
20
-274.4488
30
0
40
2.9528
1
D3
72
1
11
92.0000
21
-274.4488
31
0
73
2
0
LINE
8
A-GLAZ
10
-5.5000
20
-265.0000
30
0
11
-5.5000
21
-385.0000
31
0
0
LINE
8
A-GLAZ
10
-0.5000
20
-265.0000
30
0
11
-0.5000
21
-385.0000
31
0
0
LINE
8
A-GLAZ
10
-3.7874
20
-265.0000
30
0
11
-3.7874
21
-385.0000
31
0
0
LINE
8
A-GLAZ
10
-2.2126
20
-265.0000
30
0
11
-2.2126
21
-385.0000
31
0
0
CIRCLE
8
A-ANNO-SYMB
10
-14.9488
20
-325.0000
30
0
40
5.9055
0
TEXT
8
A-ANNO-SYMB
10
-14.9488
20
-325.0000
30
0
40
2.9528
1
W1
72
1
11
-14.9488
21
-325.0000
31
0
73
2
0
POLYLINE
8
A-DOOR
66
1
10
0
20
0
30
0
70
1
0
VERTEX
8
A-DOOR
10
132.5000
20
-269.0000
30
0
0
VERTEX
8
A-DOOR
10
132.5000
20
-270.3780
30
0
0
VERTEX
8
A-DOOR
10
96.5000
20
-270.3780
30
0
0
VERTEX
8
A-DOOR
10
96.5000
20
-269.0000
30
0
0
SEQEND
8
A-DOOR
0
ARC
8
A-DOOR
10
132.5000
20
-269.0000
30
0
40
36.0000
50
180.0000
51
270.0000
0
CIRCLE
8
A-ANNO-SYMB
10
146.9488
20
-287.0000
30
0
40
5.9055
0
TEXT
8
A-ANNO-SYMB
10
146.9488
20
-287.0000
30
0
40
2.9528
1
D2
72
1
11
146.9488
21
-287.0000
31
0
73
2
0
LINE
8
A-WALL-HEAD
10
272.5000
20
-4.5000
30
0
11
272.5000
21
-56.5000
31
0
0
LINE
8
A-WALL-HEAD
10
278.0000
20
-4.5000
30
0
11
278.0000
21
-56.5000
31
0
0
CIRCLE
8
A-ANNO-SYMB
10
263.0512
20
-30.5000
30
0
40
5.9055
0
TEXT
8
A-ANNO-SYMB
10
263.0512
20
-30.5000
30
0
40
2.9528
1
OP1
72
1
11
263.0512
21
-30.5000
31
0
73
2
0
POLYLINE
8
A-DOOR
66
1
10
0
20
0
30
0
70
1
0
VERTEX
8
A-DOOR
10
326.0000
20
-15.5000
30
0
0
VERTEX
8
A-DOOR
10
326.0000
20
-16.8780
30
0
0
VERTEX
8
A-DOOR
10
284.0000
20
-16.8780
30
0
0
VERTEX
8
A-DOOR
10
284.0000
20
-15.5000
30
0
0
SEQEND
8
A-DOOR
0
ARC
8
A-DOOR
10
326.0000
20
-15.5000
30
0
40
42.0000
50
180.0000
51
270.0000
0
CIRCLE
8
A-ANNO-SYMB
10
340.4488
20
-36.5000
30
0
40
5.9055
0
TEXT
8
A-ANNO-SYMB
10
340.4488
20
-36.5000
30
0
40
2.9528
1
D1
72
1
11
340.4488
21
-36.5000
31
0
73
2
0
LINE
8
A-WALL-HEAD
10
293.7500
20
-61.5000
30
0
11
326.0000
21
-61.5000
31
0
0
LINE
8
A-WALL-HEAD
10
293.7500
20
-65.5000
30
0
11
326.0000
21
-65.5000
31
0
0
CIRCLE
8
A-ANNO-SYMB
10
309.8750
20
-74.9488
30
0
40
5.9055
0
TEXT
8
A-ANNO-SYMB
10
309.8750
20
-74.9488
30
0
40
2.9528
1
OP3
72
1
11
309.8750
21
-74.9488
31
0
73
2
0
POLYLINE
8
A-GLAZ
66
1
10
0
20
0
30
0
70
1
0
VERTEX
8
A-GLAZ
10
278.0000
20
-205.6094
30
0
0
VERTEX
8
A-GLAZ
10
312.7185
20
-205.6094
30
0
0
VERTEX
8
A-GLAZ
10
312.7185
20
-206.7906
30
0
0
VERTEX
8
A-GLAZ
10
278.0000
20
-206.7906
30
0
0
SEQEND
8
A-GLAZ
0
POLYLINE
8
A-GLAZ
66
1
10
0
20
0
30
0
70
1
0
VERTEX
8
A-GLAZ
10
308.7815
20
-207.2094
30
0
0
VERTEX
8
A-GLAZ
10
343.5000
20
-207.2094
30
0
0
VERTEX
8
A-GLAZ
10
343.5000
20
-208.3906
30
0
0
VERTEX
8
A-GLAZ
10
308.7815
20
-208.3906
30
0
0
SEQEND
8
A-GLAZ
0
CIRCLE
8
A-ANNO-SYMB
10
310.7500
20
-195.0512
30
0
40
5.9055
0
TEXT
8
A-ANNO-SYMB
10
310.7500
20
-195.0512
30
0
40
2.9528
1
SD2
72
1
11
310.7500
21
-195.0512
31
0
73
2
0
LINE
8
A-WALL
10
278.0000
20
-256.5000
30
0
11
368.0000
21
-256.5000
31
0
0
LINE
8
A-WALL
10
278.0000
20
-261.5000
30
0
11
368.0000
21
-261.5000
31
0
0
LINE
8
A-GLAZ
10
278.0000
20
-259.0000
30
0
11
368.0000
21
-259.0000
31
0
0
CIRCLE
8
A-ANNO-SYMB
10
323.0000
20
-270.9488
30
0
40
5.9055
0
TEXT
8
A-ANNO-SYMB
10
323.0000
20
-270.9488
30
0
40
2.9528
1
R1
72
1
11
323.0000
21
-270.9488
31
0
73
2
0
POLYLINE
8
A-DOOR
66
1
10
0
20
0
30
0
70
1
0
VERTEX
8
A-DOOR
10
177.0000
20
-221.0000
30
0
0
VERTEX
8
A-DOOR
10
177.0000
20
-222.3780
30
0
0
VERTEX
8
A-DOOR
10
207.0000
20
-222.3780
30
0
0
VERTEX
8
A-DOOR
10
207.0000
20
-221.0000
30
0
0
SEQEND
8
A-DOOR
0
ARC
8
A-DOOR
10
177.0000
20
-221.0000
30
0
40
30.0000
50
270.0000
51
0.0000
0
CIRCLE
8
A-ANNO-SYMB
10
162.5512
20
-236.0000
30
0
40
5.9055
0
TEXT
8
A-ANNO-SYMB
10
162.5512
20
-236.0000
30
0
40
2.9528
1
D3
72
1
11
162.5512
21
-236.0000
31
0
73
2
0
POLYLINE
8
A-DOOR
66
1
10
0
20
0
30
0
70
1
0
VERTEX
8
A-DOOR
10
210.0000
20
-322.5000
30
0
0
VERTEX
8
A-DOOR
10
211.3780
20
-322.5000
30
0
0
VERTEX
8
A-DOOR
10
211.3780
20
-292.5000
30
0
0
VERTEX
8
A-DOOR
10
210.0000
20
-292.5000
30
0
0
SEQEND
8
A-DOOR
0
ARC
8
A-DOOR
10
210.0000
20
-322.5000
30
0
40
30.0000
50
0.0000
51
90.0000
0
CIRCLE
8
A-ANNO-SYMB
10
225.0000
20
-336.9488
30
0
40
5.9055
0
TEXT
8
A-ANNO-SYMB
10
225.0000
20
-336.9488
30
0
40
2.9528
1
D3
72
1
11
225.0000
21
-336.9488
31
0
73
2
0
POLYLINE
8
A-DOOR
66
1
10
0
20
0
30
0
70
1
0
VERTEX
8
A-DOOR
10
139.0000
20
-327.5000
30
0
0
VERTEX
8
A-DOOR
10
140.3780
20
-327.5000
30
0
0
VERTEX
8
A-DOOR
10
140.3780
20
-363.5000
30
0
0
VERTEX
8
A-DOOR
10
139.0000
20
-363.5000
30
0
0
SEQEND
8
A-DOOR
0
ARC
8
A-DOOR
10
139.0000
20
-327.5000
30
0
40
36.0000
50
270.0000
51
0.0000
0
CIRCLE
8
A-ANNO-SYMB
10
157.0000
20
-313.0512
30
0
40
5.9055
0
TEXT
8
A-ANNO-SYMB
10
157.0000
20
-313.0512
30
0
40
2.9528
1
D2
72
1
11
157.0000
21
-313.0512
31
0
73
2
0
POLYLINE
8
A-GLAZ
66
1
10
0
20
0
30
0
70
1
0
VERTEX
8
A-GLAZ
10
133.9394
20
-0.5000
30
0
0
VERTEX
8
A-GLAZ
10
133.9394
20
-41.9685
30
0
0
VERTEX
8
A-GLAZ
10
135.1206
20
-41.9685
30
0
0
VERTEX
8
A-GLAZ
10
135.1206
20
-0.5000
30
0
0
SEQEND
8
A-GLAZ
0
POLYLINE
8
A-GLAZ
66
1
10
0
20
0
30
0
70
1
0
VERTEX
8
A-GLAZ
10
135.3794
20
-38.0315
30
0
0
VERTEX
8
A-GLAZ
10
135.3794
20
-79.5000
30
0
0
VERTEX
8
A-GLAZ
10
136.5606
20
-79.5000
30
0
0
VERTEX
8
A-GLAZ
10
136.5606
20
-38.0315
30
0
0
SEQEND
8
A-GLAZ
0
CIRCLE
8
A-ANNO-SYMB
10
146.9488
20
-40.0000
30
0
40
5.9055
0
TEXT
8
A-ANNO-SYMB
10
146.9488
20
-40.0000
30
0
40
2.9528
1
SD1
72
1
11
146.9488
21
-40.0000
31
0
73
2
0
LINE
8
A-WALL
10
50.0000
20
-0.5000
30
0
11
50.0000
21
-79.5000
31
0
0
LINE
8
A-WALL
10
55.0000
20
-0.5000
30
0
11
55.0000
21
-79.5000
31
0
0
LINE
8
A-GLAZ
10
52.5000
20
-0.5000
30
0
11
52.5000
21
-79.5000
31
0
0
CIRCLE
8
A-ANNO-SYMB
10
40.5512
20
-40.0000
30
0
40
5.9055
0
TEXT
8
A-ANNO-SYMB
10
40.5512
20
-40.0000
30
0
40
2.9528
1
G1
72
1
11
40.5512
21
-40.0000
31
0
73
2
0
POLYLINE
8
A-GLAZ
66
1
10
0
20
0
30
0
70
1
0
VERTEX
8
A-GLAZ
10
134.1094
20
-390.5000
30
0
0
VERTEX
8
A-GLAZ
10
134.1094
20
-421.9685
30
0
0
VERTEX
8
A-GLAZ
10
135.2906
20
-421.9685
30
0
0
VERTEX
8
A-GLAZ
10
135.2906
20
-390.5000
30
0
0
SEQEND
8
A-GLAZ
0
POLYLINE
8
A-GLAZ
66
1
10
0
20
0
30
0
70
1
0
VERTEX
8
A-GLAZ
10
135.7094
20
-418.0315
30
0
0
VERTEX
8
A-GLAZ
10
135.7094
20
-449.5000
30
0
0
VERTEX
8
A-GLAZ
10
136.8906
20
-449.5000
30
0
0
VERTEX
8
A-GLAZ
10
136.8906
20
-418.0315
30
0
0
SEQEND
8
A-GLAZ
0
CIRCLE
8
A-ANNO-SYMB
10
147.4488
20
-420.0000
30
0
40
5.9055
0
TEXT
8
A-ANNO-SYMB
10
147.4488
20
-420.0000
30
0
40
2.9528
1
SD3
72
1
11
147.4488
21
-420.0000
31
0
73
2
0
LINE
8
A-WALL
10
56.0000
20
-390.5000
30
0
11
56.0000
21
-449.5000
31
0
0
LINE
8
A-WALL
10
61.0000
20
-390.5000
30
0
11
61.0000
21
-449.5000
31
0
0
LINE
8
A-GLAZ
10
58.5000
20
-390.5000
30
0
11
58.5000
21
-449.5000
31
0
0
CIRCLE
8
A-ANNO-SYMB
10
46.5512
20
-420.0000
30
0
40
5.9055
0
TEXT
8
A-ANNO-SYMB
10
46.5512
20
-420.0000
30
0
40
2.9528
1
G2
72
1
11
46.5512
21
-420.0000
31
0
73
2
0
TEXT
8
A-AREA-IDEN
10
205.0000
20
-99.2362
30
0
40
5.1181
1
LIVING & DINING
72
1
11
205.0000
21
-99.2362
31
0
73
2
0
TEXT
8
A-AREA-IDEN
10
205.0000
20
-104.7638
30
0
40
4.0945
1
11'-3" X 17'-0"
72
1
11
205.0000
21
-104.7638
31
0
73
2
0
TEXT
8
A-AREA-IDEN
10
154.2362
20
-268.0000
30
0
40
5.1181
1
PASSAGE
50
90
72
1
11
154.2362
21
-268.0000
31
0
73
2
0
TEXT
8
A-AREA-IDEN
10
159.7638
20
-268.0000
30
0
40
4.0945
1
3'-3" X 9'-11"
50
90
72
1
11
159.7638
21
-268.0000
31
0
73
2
0
TEXT
8
A-AREA-IDEN
10
66.0000
20
-142.2362
30
0
40
5.1181
1
PARENTS ROOM
72
1
11
66.0000
21
-142.2362
31
0
73
2
0
TEXT
8
A-AREA-IDEN
10
66.0000
20
-147.7638
30
0
40
4.0945
1
11'-1" X 9'-5"
72
1
11
66.0000
21
-147.7638
31
0
73
2
0
TEXT
8
A-AREA-IDEN
10
86.0000
20
-231.2362
30
0
40
5.1181
1
TOILET (YASH)
72
1
11
86.0000
21
-231.2362
31
0
73
2
0
TEXT
8
A-AREA-IDEN
10
86.0000
20
-236.7638
30
0
40
4.0945
1
7'-10" X 4'-6"
72
1
11
86.0000
21
-236.7638
31
0
73
2
0
TEXT
8
A-AREA-IDEN
10
66.0000
20
-322.2362
30
0
40
5.1181
1
YASH ROOM
72
1
11
66.0000
21
-322.2362
31
0
73
2
0
TEXT
8
A-AREA-IDEN
10
66.0000
20
-327.7638
30
0
40
4.0945
1
11'-1" X 10'-0"
72
1
11
66.0000
21
-327.7638
31
0
73
2
0
TEXT
8
A-AREA-IDEN
10
302.0000
20
-29.0397
30
0
40
3.6303
1
ENTRANCE LOBBY
72
1
11
302.0000
21
-29.0397
31
0
73
2
0
TEXT
8
A-AREA-IDEN
10
302.0000
20
-32.9603
30
0
40
2.9042
1
4'-0" X 5'-1"
72
1
11
302.0000
21
-32.9603
31
0
73
2
0
TEXT
8
A-AREA-IDEN
10
325.0000
20
-132.2362
30
0
40
5.1181
1
KITCHEN
72
1
11
325.0000
21
-132.2362
31
0
73
2
0
TEXT
8
A-AREA-IDEN
10
325.0000
20
-137.7638
30
0
40
4.0945
1
7'-10" X 11'-7"
72
1
11
325.0000
21
-137.7638
31
0
73
2
0
TEXT
8
A-AREA-IDEN
10
323.0000
20
-230.2362
30
0
40
5.1181
1
DRY BALCONY
72
1
11
323.0000
21
-230.2362
31
0
73
2
0
TEXT
8
A-AREA-IDEN
10
323.0000
20
-235.7638
30
0
40
4.0945
1
7'-6" X 3'-11"
72
1
11
323.0000
21
-235.7638
31
0
73
2
0
POLYLINE
8
A-FLOR-OTLN
66
1
10
0
20
0
30
0
70
1
0
VERTEX
8
A-FLOR-OTLN
10
278.0000
20
-262.0000
30
0
0
VERTEX
8
A-FLOR-OTLN
10
314.0000
20
-262.0000
30
0
0
VERTEX
8
A-FLOR-OTLN
10
314.0000
20
-352.0000
30
0
0
VERTEX
8
A-FLOR-OTLN
10
278.0000
20
-352.0000
30
0
0
SEQEND
8
A-FLOR-OTLN
0
TEXT
8
A-AREA-IDEN
10
293.2362
20
-307.0000
30
0
40
5.1181
1
SERVICE PLATFORM
50
90
72
1
11
293.2362
21
-307.0000
31
0
73
2
0
TEXT
8
A-AREA-IDEN
10
298.7638
20
-307.0000
30
0
40
4.0945
1
3'-0" X 7'-6"
50
90
72
1
11
298.7638
21
-307.0000
31
0
73
2
0
TEXT
8
A-AREA-IDEN
10
225.0000
20
-233.2362
30
0
40
5.1181
1
COMMON TOILET
72
1
11
225.0000
21
-233.2362
31
0
73
2
0
TEXT
8
A-AREA-IDEN
10
225.0000
20
-238.7638
30
0
40
4.0945
1
8'-0" X 4'-6"
72
1
11
225.0000
21
-238.7638
31
0
73
2
0
TEXT
8
A-AREA-IDEN
10
225.0000
20
-292.2362
30
0
40
5.1181
1
TOILET (BHAGYESH)
72
1
11
225.0000
21
-292.2362
31
0
73
2
0
TEXT
8
A-AREA-IDEN
10
225.0000
20
-297.7638
30
0
40
4.0945
1
8'-0" X 4'-7"
72
1
11
225.0000
21
-297.7638
31
0
73
2
0
TEXT
8
A-AREA-IDEN
10
207.0000
20
-390.2362
30
0
40
5.1181
1
BHAGYESH ROOM
72
1
11
207.0000
21
-390.2362
31
0
73
2
0
TEXT
8
A-AREA-IDEN
10
207.0000
20
-395.7638
30
0
40
4.0945
1
11'-6" X 10'-11"
72
1
11
207.0000
21
-395.7638
31
0
73
2
0
TEXT
8
A-AREA-IDEN
10
94.0000
20
-37.2362
30
0
40
5.1181
1
BALCONY (LIVING)
72
1
11
94.0000
21
-37.2362
31
0
73
2
0
TEXT
8
A-AREA-IDEN
10
94.0000
20
-42.7638
30
0
40
4.0945
1
6'-6" X 6'-7"
72
1
11
94.0000
21
-42.7638
31
0
73
2
0
TEXT
8
A-AREA-IDEN
10
97.0000
20
-417.7129
30
0
40
4.2353
1
BALCONY (BHAGYESH)
72
1
11
97.0000
21
-417.7129
31
0
73
2
0
TEXT
8
A-AREA-IDEN
10
97.0000
20
-422.2871
30
0
40
3.3882
1
6'-0" X 4'-11"
72
1
11
97.0000
21
-422.2871
31
0
73
2
0
LINE
8
A-ANNO-DIMS
10
-5.5000
20
36.4961
30
0
11
377.0000
21
36.4961
31
0
0
LINE
8
A-ANNO-DIMS
10
-5.5000
20
-81.1378
30
0
11
-5.5000
21
39.6457
31
0
0
LINE
8
A-ANNO-DIMS
10
-7.2717
20
34.7244
30
0
11
-3.7283
21
38.2677
31
0
0
LINE
8
A-ANNO-DIMS
10
55.0000
20
6.8622
30
0
11
55.0000
21
39.6457
31
0
0
LINE
8
A-ANNO-DIMS
10
53.2283
20
34.7244
30
0
11
56.7717
21
38.2677
31
0
0
LINE
8
A-ANNO-DIMS
10
133.0000
20
7.3622
30
0
11
133.0000
21
39.6457
31
0
0
LINE
8
A-ANNO-DIMS
10
131.2283
20
34.7244
30
0
11
134.7717
21
38.2677
31
0
0
LINE
8
A-ANNO-DIMS
10
137.5000
20
7.3622
30
0
11
137.5000
21
39.6457
31
0
0
LINE
8
A-ANNO-DIMS
10
135.7283
20
34.7244
30
0
11
139.2717
21
38.2677
31
0
0
LINE
8
A-ANNO-DIMS
10
272.5000
20
7.3622
30
0
11
272.5000
21
39.6457
31
0
0
LINE
8
A-ANNO-DIMS
10
270.7283
20
34.7244
30
0
11
274.2717
21
38.2677
31
0
0
LINE
8
A-ANNO-DIMS
10
278.0000
20
6.8622
30
0
11
278.0000
21
39.6457
31
0
0
LINE
8
A-ANNO-DIMS
10
276.2283
20
34.7244
30
0
11
279.7717
21
38.2677
31
0
0
LINE
8
A-ANNO-DIMS
10
326.0000
20
6.8622
30
0
11
326.0000
21
39.6457
31
0
0
LINE
8
A-ANNO-DIMS
10
324.2283
20
34.7244
30
0
11
327.7717
21
38.2677
31
0
0
LINE
8
A-ANNO-DIMS
10
377.0000
20
-58.1378
30
0
11
377.0000
21
39.6457
31
0
0
LINE
8
A-ANNO-DIMS
10
375.2283
20
34.7244
30
0
11
378.7717
21
38.2677
31
0
0
TEXT
8
A-ANNO-DIMS
10
24.7500
20
39.2520
30
0
40
3.5433
1
5'-0"
72
1
11
24.7500
21
39.2520
31
0
73
2
0
TEXT
8
A-ANNO-DIMS
10
94.0000
20
39.2520
30
0
40
3.5433
1
6'-6"
72
1
11
94.0000
21
39.2520
31
0
73
2
0
TEXT
8
A-ANNO-DIMS
10
135.2500
20
44.3701
30
0
40
3.5433
1
0'-4"
72
1
11
135.2500
21
44.3701
31
0
73
2
0
TEXT
8
A-ANNO-DIMS
10
205.0000
20
39.2520
30
0
40
3.5433
1
11'-3"
72
1
11
205.0000
21
39.2520
31
0
73
2
0
TEXT
8
A-ANNO-DIMS
10
275.2500
20
44.3701
30
0
40
3.5433
1
0'-6"
72
1
11
275.2500
21
44.3701
31
0
73
2
0
TEXT
8
A-ANNO-DIMS
10
302.0000
20
39.2520
30
0
40
3.5433
1
4'-0"
72
1
11
302.0000
21
39.2520
31
0
73
2
0
TEXT
8
A-ANNO-DIMS
10
351.5000
20
39.2520
30
0
40
3.5433
1
4'-3"
72
1
11
351.5000
21
39.2520
31
0
73
2
0
LINE
8
A-ANNO-DIMS
10
-5.5000
20
56.1811
30
0
11
377.0000
21
56.1811
31
0
0
LINE
8
A-ANNO-DIMS
10
-5.5000
20
-81.1378
30
0
11
-5.5000
21
59.3307
31
0
0
LINE
8
A-ANNO-DIMS
10
-7.2717
20
54.4094
30
0
11
-3.7283
21
57.9528
31
0
0
LINE
8
A-ANNO-DIMS
10
377.0000
20
-58.1378
30
0
11
377.0000
21
59.3307
31
0
0
LINE
8
A-ANNO-DIMS
10
375.2283
20
54.4094
30
0
11
378.7717
21
57.9528
31
0
0
TEXT
8
A-ANNO-DIMS
10
185.7500
20
58.9370
30
0
40
3.5433
1
31'-10"
72
1
11
185.7500
21
58.9370
31
0
73
2
0
LINE
8
A-ANNO-DIMS
10
-5.5000
20
-494.9961
30
0
11
377.0000
21
-494.9961
31
0
0
LINE
8
A-ANNO-DIMS
10
-5.5000
20
-392.3622
30
0
11
-5.5000
21
-498.1457
31
0
0
LINE
8
A-ANNO-DIMS
10
-7.2717
20
-496.7677
30
0
11
-3.7283
21
-493.2244
31
0
0
LINE
8
A-ANNO-DIMS
10
61.0000
20
-456.8622
30
0
11
61.0000
21
-498.1457
31
0
0
LINE
8
A-ANNO-DIMS
10
59.2283
20
-496.7677
30
0
11
62.7717
21
-493.2244
31
0
0
LINE
8
A-ANNO-DIMS
10
133.0000
20
-465.8622
30
0
11
133.0000
21
-498.1457
31
0
0
LINE
8
A-ANNO-DIMS
10
131.2283
20
-496.7677
30
0
11
134.7717
21
-493.2244
31
0
0
LINE
8
A-ANNO-DIMS
10
138.0000
20
-465.8622
30
0
11
138.0000
21
-498.1457
31
0
0
LINE
8
A-ANNO-DIMS
10
136.2283
20
-496.7677
30
0
11
139.7717
21
-493.2244
31
0
0
LINE
8
A-ANNO-DIMS
10
276.0000
20
-465.8622
30
0
11
276.0000
21
-498.1457
31
0
0
LINE
8
A-ANNO-DIMS
10
274.2283
20
-496.7677
30
0
11
277.7717
21
-493.2244
31
0
0
LINE
8
A-ANNO-DIMS
10
377.0000
20
-211.8622
30
0
11
377.0000
21
-498.1457
31
0
0
LINE
8
A-ANNO-DIMS
10
375.2283
20
-496.7677
30
0
11
378.7717
21
-493.2244
31
0
0
TEXT
8
A-ANNO-DIMS
10
27.7500
20
-492.2402
30
0
40
3.5433
1
5'-7"
72
1
11
27.7500
21
-492.2402
31
0
73
2
0
TEXT
8
A-ANNO-DIMS
10
97.0000
20
-492.2402
30
0
40
3.5433
1
6'-0"
72
1
11
97.0000
21
-492.2402
31
0
73
2
0
TEXT
8
A-ANNO-DIMS
10
135.5000
20
-487.1220
30
0
40
3.5433
1
0'-5"
72
1
11
135.5000
21
-487.1220
31
0
73
2
0
TEXT
8
A-ANNO-DIMS
10
207.0000
20
-492.2402
30
0
40
3.5433
1
11'-6"
72
1
11
207.0000
21
-492.2402
31
0
73
2
0
TEXT
8
A-ANNO-DIMS
10
326.5000
20
-492.2402
30
0
40
3.5433
1
8'-5"
72
1
11
326.5000
21
-492.2402
31
0
73
2
0
LINE
8
A-ANNO-DIMS
10
-5.5000
20
-514.6811
30
0
11
377.0000
21
-514.6811
31
0
0
LINE
8
A-ANNO-DIMS
10
-5.5000
20
-392.3622
30
0
11
-5.5000
21
-517.8307
31
0
0
LINE
8
A-ANNO-DIMS
10
-7.2717
20
-516.4528
30
0
11
-3.7283
21
-512.9094
31
0
0
LINE
8
A-ANNO-DIMS
10
377.0000
20
-211.8622
30
0
11
377.0000
21
-517.8307
31
0
0
LINE
8
A-ANNO-DIMS
10
375.2283
20
-516.4528
30
0
11
378.7717
21
-512.9094
31
0
0
TEXT
8
A-ANNO-DIMS
10
185.7500
20
-511.9252
30
0
40
3.5433
1
31'-10"
72
1
11
185.7500
21
-511.9252
31
0
73
2
0
LINE
8
A-ANNO-DIMS
10
-36.9961
20
5.0000
30
0
11
-36.9961
21
-463.5000
31
0
0
LINE
8
A-ANNO-DIMS
10
130.1378
20
5.0000
30
0
11
-40.1457
21
5.0000
31
0
0
LINE
8
A-ANNO-DIMS
10
-35.2244
20
6.7717
30
0
11
-38.7677
21
3.2283
31
0
0
LINE
8
A-ANNO-DIMS
10
47.6378
20
-0.5000
30
0
11
-40.1457
21
-0.5000
31
0
0
LINE
8
A-ANNO-DIMS
10
-35.2244
20
1.2717
30
0
11
-38.7677
21
-2.2717
31
0
0
LINE
8
A-ANNO-DIMS
10
47.6378
20
-79.5000
30
0
11
-40.1457
21
-79.5000
31
0
0
LINE
8
A-ANNO-DIMS
10
-35.2244
20
-77.7283
30
0
11
-38.7677
21
-81.2717
31
0
0
LINE
8
A-ANNO-DIMS
10
-7.8622
20
-88.5000
30
0
11
-40.1457
21
-88.5000
31
0
0
LINE
8
A-ANNO-DIMS
10
-35.2244
20
-86.7283
30
0
11
-38.7677
21
-90.2717
31
0
0
LINE
8
A-ANNO-DIMS
10
-7.8622
20
-201.5000
30
0
11
-40.1457
21
-201.5000
31
0
0
LINE
8
A-ANNO-DIMS
10
-35.2244
20
-199.7283
30
0
11
-38.7677
21
-203.2717
31
0
0
LINE
8
A-ANNO-DIMS
10
31.6378
20
-207.0000
30
0
11
-40.1457
21
-207.0000
31
0
0
LINE
8
A-ANNO-DIMS
10
-35.2244
20
-205.2283
30
0
11
-38.7677
21
-208.7717
31
0
0
LINE
8
A-ANNO-DIMS
10
-7.8622
20
-261.0000
30
0
11
-40.1457
21
-261.0000
31
0
0
LINE
8
A-ANNO-DIMS
10
-35.2244
20
-259.2283
30
0
11
-38.7677
21
-262.7717
31
0
0
LINE
8
A-ANNO-DIMS
10
-7.8622
20
-265.0000
30
0
11
-40.1457
21
-265.0000
31
0
0
LINE
8
A-ANNO-DIMS
10
-35.2244
20
-263.2283
30
0
11
-38.7677
21
-266.7717
31
0
0
LINE
8
A-ANNO-DIMS
10
-7.8622
20
-385.0000
30
0
11
-40.1457
21
-385.0000
31
0
0
LINE
8
A-ANNO-DIMS
10
-35.2244
20
-383.2283
30
0
11
-38.7677
21
-386.7717
31
0
0
LINE
8
A-ANNO-DIMS
10
53.6378
20
-390.5000
30
0
11
-40.1457
21
-390.5000
31
0
0
LINE
8
A-ANNO-DIMS
10
-35.2244
20
-388.7283
30
0
11
-38.7677
21
-392.2717
31
0
0
LINE
8
A-ANNO-DIMS
10
53.6378
20
-449.5000
30
0
11
-40.1457
21
-449.5000
31
0
0
LINE
8
A-ANNO-DIMS
10
-35.2244
20
-447.7283
30
0
11
-38.7677
21
-451.2717
31
0
0
LINE
8
A-ANNO-DIMS
10
130.6378
20
-463.5000
30
0
11
-40.1457
21
-463.5000
31
0
0
LINE
8
A-ANNO-DIMS
10
-35.2244
20
-461.7283
30
0
11
-38.7677
21
-465.2717
31
0
0
TEXT
8
A-ANNO-DIMS
10
-44.8701
20
2.2500
30
0
40
3.5433
1
0'-5"
50
90
72
1
11
-44.8701
21
2.2500
31
0
73
2
0
TEXT
8
A-ANNO-DIMS
10
-39.7520
20
-40.0000
30
0
40
3.5433
1
6'-7"
50
90
72
1
11
-39.7520
21
-40.0000
31
0
73
2
0
TEXT
8
A-ANNO-DIMS
10
-44.8701
20
-84.0000
30
0
40
3.5433
1
0'-9"
50
90
72
1
11
-44.8701
21
-84.0000
31
0
73
2
0
TEXT
8
A-ANNO-DIMS
10
-39.7520
20
-145.0000
30
0
40
3.5433
1
9'-5"
50
90
72
1
11
-39.7520
21
-145.0000
31
0
73
2
0
TEXT
8
A-ANNO-DIMS
10
-44.8701
20
-204.2500
30
0
40
3.5433
1
0'-5"
50
90
72
1
11
-44.8701
21
-204.2500
31
0
73
2
0
TEXT
8
A-ANNO-DIMS
10
-39.7520
20
-234.0000
30
0
40
3.5433
1
4'-6"
50
90
72
1
11
-39.7520
21
-234.0000
31
0
73
2
0
TEXT
8
A-ANNO-DIMS
10
-44.8701
20
-263.0000
30
0
40
3.5433
1
0'-4"
50
90
72
1
11
-44.8701
21
-263.0000
31
0
73
2
0
TEXT
8
A-ANNO-DIMS
10
-39.7520
20
-325.0000
30
0
40
3.5433
1
10'-0"
50
90
72
1
11
-39.7520
21
-325.0000
31
0
73
2
0
TEXT
8
A-ANNO-DIMS
10
-44.8701
20
-387.7500
30
0
40
3.5433
1
0'-6"
50
90
72
1
11
-44.8701
21
-387.7500
31
0
73
2
0
TEXT
8
A-ANNO-DIMS
10
-39.7520
20
-420.0000
30
0
40
3.5433
1
4'-11"
50
90
72
1
11
-39.7520
21
-420.0000
31
0
73
2
0
TEXT
8
A-ANNO-DIMS
10
-44.8701
20
-456.5000
30
0
40
3.5433
1
1'-2"
50
90
72
1
11
-44.8701
21
-456.5000
31
0
73
2
0
LINE
8
A-ANNO-DIMS
10
-56.6811
20
5.0000
30
0
11
-56.6811
21
-463.5000
31
0
0
LINE
8
A-ANNO-DIMS
10
130.1378
20
5.0000
30
0
11
-59.8307
21
5.0000
31
0
0
LINE
8
A-ANNO-DIMS
10
-54.9094
20
6.7717
30
0
11
-58.4528
21
3.2283
31
0
0
LINE
8
A-ANNO-DIMS
10
130.6378
20
-463.5000
30
0
11
-59.8307
21
-463.5000
31
0
0
LINE
8
A-ANNO-DIMS
10
-54.9094
20
-461.7283
30
0
11
-58.4528
21
-465.2717
31
0
0
TEXT
8
A-ANNO-DIMS
10
-59.4370
20
-229.2500
30
0
40
3.5433
1
39'-1"
50
90
72
1
11
-59.4370
21
-229.2500
31
0
73
2
0
LINE
8
A-ANNO-DIMS
10
408.4961
20
5.0000
30
0
11
408.4961
21
-463.5000
31
0
0
LINE
8
A-ANNO-DIMS
10
279.8622
20
5.0000
30
0
11
411.6457
21
5.0000
31
0
0
LINE
8
A-ANNO-DIMS
10
410.2677
20
6.7717
30
0
11
406.7244
21
3.2283
31
0
0
LINE
8
A-ANNO-DIMS
10
333.3622
20
-0.5000
30
0
11
411.6457
21
-0.5000
31
0
0
LINE
8
A-ANNO-DIMS
10
410.2677
20
1.2717
30
0
11
406.7244
21
-2.2717
31
0
0
LINE
8
A-ANNO-DIMS
10
379.3622
20
-61.5000
30
0
11
411.6457
21
-61.5000
31
0
0
LINE
8
A-ANNO-DIMS
10
410.2677
20
-59.7283
30
0
11
406.7244
21
-63.2717
31
0
0
LINE
8
A-ANNO-DIMS
10
379.3622
20
-65.5000
30
0
11
411.6457
21
-65.5000
31
0
0
LINE
8
A-ANNO-DIMS
10
410.2677
20
-63.7283
30
0
11
406.7244
21
-67.2717
31
0
0
LINE
8
A-ANNO-DIMS
10
379.3622
20
-204.5000
30
0
11
411.6457
21
-204.5000
31
0
0
LINE
8
A-ANNO-DIMS
10
410.2677
20
-202.7283
30
0
11
406.7244
21
-206.2717
31
0
0
LINE
8
A-ANNO-DIMS
10
379.3622
20
-209.5000
30
0
11
411.6457
21
-209.5000
31
0
0
LINE
8
A-ANNO-DIMS
10
410.2677
20
-207.7283
30
0
11
406.7244
21
-211.2717
31
0
0
LINE
8
A-ANNO-DIMS
10
375.3622
20
-256.5000
30
0
11
411.6457
21
-256.5000
31
0
0
LINE
8
A-ANNO-DIMS
10
410.2677
20
-254.7283
30
0
11
406.7244
21
-258.2717
31
0
0
LINE
8
A-ANNO-DIMS
10
283.3622
20
-463.5000
30
0
11
411.6457
21
-463.5000
31
0
0
LINE
8
A-ANNO-DIMS
10
410.2677
20
-461.7283
30
0
11
406.7244
21
-465.2717
31
0
0
TEXT
8
A-ANNO-DIMS
10
400.6220
20
2.2500
30
0
40
3.5433
1
0'-6"
50
90
72
1
11
400.6220
21
2.2500
31
0
73
2
0
TEXT
8
A-ANNO-DIMS
10
405.7402
20
-31.0000
30
0
40
3.5433
1
5'-1"
50
90
72
1
11
405.7402
21
-31.0000
31
0
73
2
0
TEXT
8
A-ANNO-DIMS
10
400.6220
20
-63.5000
30
0
40
3.5433
1
0'-4"
50
90
72
1
11
400.6220
21
-63.5000
31
0
73
2
0
TEXT
8
A-ANNO-DIMS
10
405.7402
20
-135.0000
30
0
40
3.5433
1
11'-7"
50
90
72
1
11
405.7402
21
-135.0000
31
0
73
2
0
TEXT
8
A-ANNO-DIMS
10
400.6220
20
-207.0000
30
0
40
3.5433
1
0'-5"
50
90
72
1
11
400.6220
21
-207.0000
31
0
73
2
0
TEXT
8
A-ANNO-DIMS
10
405.7402
20
-233.0000
30
0
40
3.5433
1
3'-11"
50
90
72
1
11
405.7402
21
-233.0000
31
0
73
2
0
TEXT
8
A-ANNO-DIMS
10
405.7402
20
-360.0000
30
0
40
3.5433
1
17'-3"
50
90
72
1
11
405.7402
21
-360.0000
31
0
73
2
0
LINE
8
A-ANNO-DIMS
10
428.1811
20
5.0000
30
0
11
428.1811
21
-463.5000
31
0
0
LINE
8
A-ANNO-DIMS
10
279.8622
20
5.0000
30
0
11
431.3307
21
5.0000
31
0
0
LINE
8
A-ANNO-DIMS
10
429.9528
20
6.7717
30
0
11
426.4094
21
3.2283
31
0
0
LINE
8
A-ANNO-DIMS
10
283.3622
20
-463.5000
30
0
11
431.3307
21
-463.5000
31
0
0
LINE
8
A-ANNO-DIMS
10
429.9528
20
-461.7283
30
0
11
426.4094
21
-465.2717
31
0
0
TEXT
8
A-ANNO-DIMS
10
425.4252
20
-229.2500
30
0
40
3.5433
1
39'-1"
50
90
72
1
11
425.4252
21
-229.2500
31
0
73
2
0
CIRCLE
8
A-ANNO-SYMB
10
621.0945
20
44.3701
30
0
40
12.5984
0
POLYLINE
8
A-ANNO-SYMB
66
1
10
0
20
0
30
0
70
1
0
VERTEX
8
A-ANNO-SYMB
10
621.0945
20
60.1181
30
0
0
VERTEX
8
A-ANNO-SYMB
10
626.6063
20
35.7087
30
0
0
VERTEX
8
A-ANNO-SYMB
10
621.0945
20
40.4331
30
0
0
VERTEX
8
A-ANNO-SYMB
10
615.5827
20
35.7087
30
0
0
SEQEND
8
A-ANNO-SYMB
0
SOLID
8
A-ANNO-SYMB
10
621.0945
20
60.1181
30
0
11
621.0945
21
40.4331
31
0
12
615.5827
22
35.7087
32
0
13
615.5827
23
35.7087
33
0
0
TEXT
8
A-ANNO-SYMB
10
621.0945
20
66.4173
30
0
40
5.5118
1
N
72
1
11
621.0945
21
66.4173
31
0
73
2
0
TEXT
8
A-ANNO-TEXT
10
459.6772
20
52.2441
30
0
40
9.4488
1
FLOOR PLAN
72
0
11
459.6772
21
52.2441
31
0
73
2
0
TEXT
8
A-ANNO-TEXT
10
459.6772
20
36.4961
30
0
40
4.7244
1
FLAT - PLAN OPTION 1
72
0
11
459.6772
21
36.4961
31
0
73
2
0
SOLID
8
A-ANNO-SYMB
10
459.6772
20
12.8740
30
0
11
471.6772
21
12.8740
31
0
12
459.6772
22
9.7244
32
0
13
471.6772
23
9.7244
33
0
0
POLYLINE
8
A-ANNO-SYMB
66
1
10
0
20
0
30
0
70
1
0
VERTEX
8
A-ANNO-SYMB
10
459.6772
20
12.8740
30
0
0
VERTEX
8
A-ANNO-SYMB
10
471.6772
20
12.8740
30
0
0
VERTEX
8
A-ANNO-SYMB
10
471.6772
20
9.7244
30
0
0
VERTEX
8
A-ANNO-SYMB
10
459.6772
20
9.7244
30
0
0
SEQEND
8
A-ANNO-SYMB
0
POLYLINE
8
A-ANNO-SYMB
66
1
10
0
20
0
30
0
70
1
0
VERTEX
8
A-ANNO-SYMB
10
471.6772
20
12.8740
30
0
0
VERTEX
8
A-ANNO-SYMB
10
483.6772
20
12.8740
30
0
0
VERTEX
8
A-ANNO-SYMB
10
483.6772
20
9.7244
30
0
0
VERTEX
8
A-ANNO-SYMB
10
471.6772
20
9.7244
30
0
0
SEQEND
8
A-ANNO-SYMB
0
SOLID
8
A-ANNO-SYMB
10
483.6772
20
12.8740
30
0
11
495.6772
21
12.8740
31
0
12
483.6772
22
9.7244
32
0
13
495.6772
23
9.7244
33
0
0
POLYLINE
8
A-ANNO-SYMB
66
1
10
0
20
0
30
0
70
1
0
VERTEX
8
A-ANNO-SYMB
10
483.6772
20
12.8740
30
0
0
VERTEX
8
A-ANNO-SYMB
10
495.6772
20
12.8740
30
0
0
VERTEX
8
A-ANNO-SYMB
10
495.6772
20
9.7244
30
0
0
VERTEX
8
A-ANNO-SYMB
10
483.6772
20
9.7244
30
0
0
SEQEND
8
A-ANNO-SYMB
0
POLYLINE
8
A-ANNO-SYMB
66
1
10
0
20
0
30
0
70
1
0
VERTEX
8
A-ANNO-SYMB
10
495.6772
20
12.8740
30
0
0
VERTEX
8
A-ANNO-SYMB
10
507.6772
20
12.8740
30
0
0
VERTEX
8
A-ANNO-SYMB
10
507.6772
20
9.7244
30
0
0
VERTEX
8
A-ANNO-SYMB
10
495.6772
20
9.7244
30
0
0
SEQEND
8
A-ANNO-SYMB
0
SOLID
8
A-ANNO-SYMB
10
507.6772
20
12.8740
30
0
11
519.6772
21
12.8740
31
0
12
507.6772
22
9.7244
32
0
13
519.6772
23
9.7244
33
0
0
POLYLINE
8
A-ANNO-SYMB
66
1
10
0
20
0
30
0
70
1
0
VERTEX
8
A-ANNO-SYMB
10
507.6772
20
12.8740
30
0
0
VERTEX
8
A-ANNO-SYMB
10
519.6772
20
12.8740
30
0
0
VERTEX
8
A-ANNO-SYMB
10
519.6772
20
9.7244
30
0
0
VERTEX
8
A-ANNO-SYMB
10
507.6772
20
9.7244
30
0
0
SEQEND
8
A-ANNO-SYMB
0
POLYLINE
8
A-ANNO-SYMB
66
1
10
0
20
0
30
0
70
1
0
VERTEX
8
A-ANNO-SYMB
10
519.6772
20
12.8740
30
0
0
VERTEX
8
A-ANNO-SYMB
10
579.6772
20
12.8740
30
0
0
VERTEX
8
A-ANNO-SYMB
10
579.6772
20
9.7244
30
0
0
VERTEX
8
A-ANNO-SYMB
10
519.6772
20
9.7244
30
0
0
SEQEND
8
A-ANNO-SYMB
0
SOLID
8
A-ANNO-SYMB
10
579.6772
20
12.8740
30
0
11
639.6772
21
12.8740
31
0
12
579.6772
22
9.7244
32
0
13
639.6772
23
9.7244
33
0
0
POLYLINE
8
A-ANNO-SYMB
66
1
10
0
20
0
30
0
70
1
0
VERTEX
8
A-ANNO-SYMB
10
579.6772
20
12.8740
30
0
0
VERTEX
8
A-ANNO-SYMB
10
639.6772
20
12.8740
30
0
0
VERTEX
8
A-ANNO-SYMB
10
639.6772
20
9.7244
30
0
0
VERTEX
8
A-ANNO-SYMB
10
579.6772
20
9.7244
30
0
0
SEQEND
8
A-ANNO-SYMB
0
TEXT
8
A-ANNO-SYMB
10
459.6772
20
4.2126
30
0
40
2.7559
1
0
72
1
11
459.6772
21
4.2126
31
0
73
2
0
TEXT
8
A-ANNO-SYMB
10
519.6772
20
4.2126
30
0
40
2.7559
1
5
72
1
11
519.6772
21
4.2126
31
0
73
2
0
TEXT
8
A-ANNO-SYMB
10
579.6772
20
4.2126
30
0
40
2.7559
1
10
72
1
11
579.6772
21
4.2126
31
0
73
2
0
TEXT
8
A-ANNO-SYMB
10
639.6772
20
4.2126
30
0
40
2.7559
1
15
72
1
11
639.6772
21
4.2126
31
0
73
2
0
TEXT
8
A-ANNO-SYMB
10
644.4016
20
11.2992
30
0
40
2.7559
1
FT
72
0
11
644.4016
21
11.2992
31
0
73
2
0
TEXT
8
A-ANNO-TEXT
10
459.6772
20
-14.6850
30
0
40
4.7244
1
DOOR & WINDOW SCHEDULE
72
0
11
459.6772
21
-14.6850
31
0
73
2
0
LINE
8
A-ANNO-TEXT
10
459.6772
20
-19.4094
30
0
11
640.7795
21
-19.4094
31
0
0
TEXT
8
A-ANNO-TEXT
10
459.6772
20
-28.4646
30
0
40
2.9528
1
MARK
72
0
11
459.6772
21
-28.4646
31
0
73
2
0
TEXT
8
A-ANNO-TEXT
10
481.3307
20
-28.4646
30
0
40
2.9528
1
DESCRIPTION
72
0
11
481.3307
21
-28.4646
31
0
73
2
0
TEXT
8
A-ANNO-TEXT
10
585.6614
20
-28.4646
30
0
40
2.9528
1
W X H
72
0
11
585.6614
21
-28.4646
31
0
73
2
0
TEXT
8
A-ANNO-TEXT
10
628.9685
20
-28.4646
30
0
40
2.9528
1
NOS
72
0
11
628.9685
21
-28.4646
31
0
73
2
0
TEXT
8
A-ANNO-TEXT
10
459.6772
20
-37.1260
30
0
40
2.7559
1
D1
72
0
11
459.6772
21
-37.1260
31
0
73
2
0
TEXT
8
A-ANNO-TEXT
10
481.3307
20
-37.1260
30
0
40
2.7559
1
FLUSH DOOR, HINGED
72
0
11
481.3307
21
-37.1260
31
0
73
2
0
TEXT
8
A-ANNO-TEXT
10
585.6614
20
-37.1260
30
0
40
2.7559
1
3'-6" X 7'-0"
72
0
11
585.6614
21
-37.1260
31
0
73
2
0
TEXT
8
A-ANNO-TEXT
10
628.9685
20
-37.1260
30
0
40
2.7559
1
1
72
0
11
628.9685
21
-37.1260
31
0
73
2
0
TEXT
8
A-ANNO-TEXT
10
459.6772
20
-44.2126
30
0
40
2.7559
1
D2
72
0
11
459.6772
21
-44.2126
31
0
73
2
0
TEXT
8
A-ANNO-TEXT
10
481.3307
20
-44.2126
30
0
40
2.7559
1
FLUSH DOOR, HINGED
72
0
11
481.3307
21
-44.2126
31
0
73
2
0
TEXT
8
A-ANNO-TEXT
10
585.6614
20
-44.2126
30
0
40
2.7559
1
3'-0" X 7'-0"
72
0
11
585.6614
21
-44.2126
31
0
73
2
0
TEXT
8
A-ANNO-TEXT
10
628.9685
20
-44.2126
30
0
40
2.7559
1
3
72
0
11
628.9685
21
-44.2126
31
0
73
2
0
TEXT
8
A-ANNO-TEXT
10
459.6772
20
-51.2992
30
0
40
2.7559
1
D3
72
0
11
459.6772
21
-51.2992
31
0
73
2
0
TEXT
8
A-ANNO-TEXT
10
481.3307
20
-51.2992
30
0
40
2.7559
1
FLUSH DOOR, HINGED
72
0
11
481.3307
21
-51.2992
31
0
73
2
0
TEXT
8
A-ANNO-TEXT
10
585.6614
20
-51.2992
30
0
40
2.7559
1
2'-6" X 7'-0"
72
0
11
585.6614
21
-51.2992
31
0
73
2
0
TEXT
8
A-ANNO-TEXT
10
628.9685
20
-51.2992
30
0
40
2.7559
1
3
72
0
11
628.9685
21
-51.2992
31
0
73
2
0
TEXT
8
A-ANNO-TEXT
10
459.6772
20
-58.3858
30
0
40
2.7559
1
W1
72
0
11
459.6772
21
-58.3858
31
0
73
2
0
TEXT
8
A-ANNO-TEXT
10
481.3307
20
-58.3858
30
0
40
2.7559
1
WINDOW, FLOOR TO CEILING
72
0
11
481.3307
21
-58.3858
31
0
73
2
0
TEXT
8
A-ANNO-TEXT
10
585.6614
20
-58.3858
30
0
40
2.7559
1
10'-0" X 10'-0"
72
0
11
585.6614
21
-58.3858
31
0
73
2
0
TEXT
8
A-ANNO-TEXT
10
628.9685
20
-58.3858
30
0
40
2.7559
1
1
72
0
11
628.9685
21
-58.3858
31
0
73
2
0
TEXT
8
A-ANNO-TEXT
10
459.6772
20
-65.4724
30
0
40
2.7559
1
W2
72
0
11
459.6772
21
-65.4724
31
0
73
2
0
TEXT
8
A-ANNO-TEXT
10
481.3307
20
-65.4724
30
0
40
2.7559
1
WINDOW, FLOOR TO CEILING
72
0
11
481.3307
21
-65.4724
31
0
73
2
0
TEXT
8
A-ANNO-TEXT
10
585.6614
20
-65.4724
30
0
40
2.7559
1
9'-5" X 10'-0"
72
0
11
585.6614
21
-65.4724
31
0
73
2
0
TEXT
8
A-ANNO-TEXT
10
628.9685
20
-65.4724
30
0
40
2.7559
1
1
72
0
11
628.9685
21
-65.4724
31
0
73
2
0
TEXT
8
A-ANNO-TEXT
10
459.6772
20
-72.5591
30
0
40
2.7559
1
SD1
72
0
11
459.6772
21
-72.5591
31
0
73
2
0
TEXT
8
A-ANNO-TEXT
10
481.3307
20
-72.5591
30
0
40
2.7559
1
SLIDING GLASS DOOR
72
0
11
481.3307
21
-72.5591
31
0
73
2
0
TEXT
8
A-ANNO-TEXT
10
585.6614
20
-72.5591
30
0
40
2.7559
1
6'-7" X 7'-0"
72
0
11
585.6614
21
-72.5591
31
0
73
2
0
TEXT
8
A-ANNO-TEXT
10
628.9685
20
-72.5591
30
0
40
2.7559
1
1
72
0
11
628.9685
21
-72.5591
31
0
73
2
0
TEXT
8
A-ANNO-TEXT
10
459.6772
20
-79.6457
30
0
40
2.7559
1
SD2
72
0
11
459.6772
21
-79.6457
31
0
73
2
0
TEXT
8
A-ANNO-TEXT
10
481.3307
20
-79.6457
30
0
40
2.7559
1
SLIDING GLASS DOOR
72
0
11
481.3307
21
-79.6457
31
0
73
2
0
TEXT
8
A-ANNO-TEXT
10
585.6614
20
-79.6457
30
0
40
2.7559
1
5'-6" X 10'-0"
72
0
11
585.6614
21
-79.6457
31
0
73
2
0
TEXT
8
A-ANNO-TEXT
10
628.9685
20
-79.6457
30
0
40
2.7559
1
1
72
0
11
628.9685
21
-79.6457
31
0
73
2
0
TEXT
8
A-ANNO-TEXT
10
459.6772
20
-86.7323
30
0
40
2.7559
1
SD3
72
0
11
459.6772
21
-86.7323
31
0
73
2
0
TEXT
8
A-ANNO-TEXT
10
481.3307
20
-86.7323
30
0
40
2.7559
1
SLIDING GLASS DOOR
72
0
11
481.3307
21
-86.7323
31
0
73
2
0
TEXT
8
A-ANNO-TEXT
10
585.6614
20
-86.7323
30
0
40
2.7559
1
4'-11" X 7'-0"
72
0
11
585.6614
21
-86.7323
31
0
73
2
0
TEXT
8
A-ANNO-TEXT
10
628.9685
20
-86.7323
30
0
40
2.7559
1
1
72
0
11
628.9685
21
-86.7323
31
0
73
2
0
TEXT
8
A-ANNO-TEXT
10
459.6772
20
-93.8189
30
0
40
2.7559
1
OP1
72
0
11
459.6772
21
-93.8189
31
0
73
2
0
TEXT
8
A-ANNO-TEXT
10
481.3307
20
-93.8189
30
0
40
2.7559
1
OPENING, NO SHUTTER
72
0
11
481.3307
21
-93.8189
31
0
73
2
0
TEXT
8
A-ANNO-TEXT
10
585.6614
20
-93.8189
30
0
40
2.7559
1
4'-4" X 7'-0"
72
0
11
585.6614
21
-93.8189
31
0
73
2
0
TEXT
8
A-ANNO-TEXT
10
628.9685
20
-93.8189
30
0
40
2.7559
1
1
72
0
11
628.9685
21
-93.8189
31
0
73
2
0
TEXT
8
A-ANNO-TEXT
10
459.6772
20
-100.9055
30
0
40
2.7559
1
OP2
72
0
11
459.6772
21
-100.9055
31
0
73
2
0
TEXT
8
A-ANNO-TEXT
10
481.3307
20
-100.9055
30
0
40
2.7559
1
OPENING, NO SHUTTER
72
0
11
481.3307
21
-100.9055
31
0
73
2
0
TEXT
8
A-ANNO-TEXT
10
585.6614
20
-100.9055
30
0
40
2.7559
1
3'-3" X 7'-0"
72
0
11
585.6614
21
-100.9055
31
0
73
2
0
TEXT
8
A-ANNO-TEXT
10
628.9685
20
-100.9055
30
0
40
2.7559
1
1
72
0
11
628.9685
21
-100.9055
31
0
73
2
0
TEXT
8
A-ANNO-TEXT
10
459.6772
20
-107.9921
30
0
40
2.7559
1
OP3
72
0
11
459.6772
21
-107.9921
31
0
73
2
0
TEXT
8
A-ANNO-TEXT
10
481.3307
20
-107.9921
30
0
40
2.7559
1
OPENING, NO SHUTTER
72
0
11
481.3307
21
-107.9921
31
0
73
2
0
TEXT
8
A-ANNO-TEXT
10
585.6614
20
-107.9921
30
0
40
2.7559
1
2'-8" X 7'-0"
72
0
11
585.6614
21
-107.9921
31
0
73
2
0
TEXT
8
A-ANNO-TEXT
10
628.9685
20
-107.9921
30
0
40
2.7559
1
1
72
0
11
628.9685
21
-107.9921
31
0
73
2
0
TEXT
8
A-ANNO-TEXT
10
459.6772
20
-115.0787
30
0
40
2.7559
1
R1
72
0
11
459.6772
21
-115.0787
31
0
73
2
0
TEXT
8
A-ANNO-TEXT
10
481.3307
20
-115.0787
30
0
40
2.7559
1
HALF WALL 3'-0" + METAL RAILING
72
0
11
481.3307
21
-115.0787
31
0
73
2
0
TEXT
8
A-ANNO-TEXT
10
585.6614
20
-115.0787
30
0
40
2.7559
1
7'-6" X 10'-0"
72
0
11
585.6614
21
-115.0787
31
0
73
2
0
TEXT
8
A-ANNO-TEXT
10
628.9685
20
-115.0787
30
0
40
2.7559
1
1
72
0
11
628.9685
21
-115.0787
31
0
73
2
0
TEXT
8
A-ANNO-TEXT
10
459.6772
20
-122.1654
30
0
40
2.7559
1
G1
72
0
11
459.6772
21
-122.1654
31
0
73
2
0
TEXT
8
A-ANNO-TEXT
10
481.3307
20
-122.1654
30
0
40
2.7559
1
MS GRILL RAILING 3'-6", OPEN ABOVE
72
0
11
481.3307
21
-122.1654
31
0
73
2
0
TEXT
8
A-ANNO-TEXT
10
585.6614
20
-122.1654
30
0
40
2.7559
1
6'-7" X 10'-0"
72
0
11
585.6614
21
-122.1654
31
0
73
2
0
TEXT
8
A-ANNO-TEXT
10
628.9685
20
-122.1654
30
0
40
2.7559
1
1
72
0
11
628.9685
21
-122.1654
31
0
73
2
0
TEXT
8
A-ANNO-TEXT
10
459.6772
20
-129.2520
30
0
40
2.7559
1
G2
72
0
11
459.6772
21
-129.2520
31
0
73
2
0
TEXT
8
A-ANNO-TEXT
10
481.3307
20
-129.2520
30
0
40
2.7559
1
MS GRILL RAILING 3'-6", OPEN ABOVE
72
0
11
481.3307
21
-129.2520
31
0
73
2
0
TEXT
8
A-ANNO-TEXT
10
585.6614
20
-129.2520
30
0
40
2.7559
1
4'-11" X 10'-0"
72
0
11
585.6614
21
-129.2520
31
0
73
2
0
TEXT
8
A-ANNO-TEXT
10
628.9685
20
-129.2520
30
0
40
2.7559
1
1
72
0
11
628.9685
21
-129.2520
31
0
73
2
0
TEXT
8
A-ANNO-TEXT
10
459.6772
20
-148.1496
30
0
40
4.7244
1
AREA STATEMENT (CLEAR FLOOR AREA)
72
0
11
459.6772
21
-148.1496
31
0
73
2
0
LINE
8
A-ANNO-TEXT
10
459.6772
20
-152.8740
30
0
11
640.7795
21
-152.8740
31
0
0
TEXT
8
A-ANNO-TEXT
10
459.6772
20
-161.9291
30
0
40
2.7559
1
LIVING & DINING
72
0
11
459.6772
21
-161.9291
31
0
73
2
0
TEXT
8
A-ANNO-TEXT
10
640.7795
20
-161.9291
30
0
40
2.7559
1
191.2 SQ.FT
72
2
11
640.7795
21
-161.9291
31
0
73
2
0
TEXT
8
A-ANNO-TEXT
10
459.6772
20
-168.6220
30
0
40
2.7559
1
PASSAGE
72
0
11
459.6772
21
-168.6220
31
0
73
2
0
TEXT
8
A-ANNO-TEXT
10
640.7795
20
-168.6220
30
0
40
2.7559
1
32.2 SQ.FT
72
2
11
640.7795
21
-168.6220
31
0
73
2
0
TEXT
8
A-ANNO-TEXT
10
459.6772
20
-175.3150
30
0
40
2.7559
1
PARENTS ROOM
72
0
11
459.6772
21
-175.3150
31
0
73
2
0
TEXT
8
A-ANNO-TEXT
10
640.7795
20
-175.3150
30
0
40
2.7559
1
104.4 SQ.FT
72
2
11
640.7795
21
-175.3150
31
0
73
2
0
TEXT
8
A-ANNO-TEXT
10
459.6772
20
-182.0079
30
0
40
2.7559
1
TOILET (YASH)
72
0
11
459.6772
21
-182.0079
31
0
73
2
0
TEXT
8
A-ANNO-TEXT
10
640.7795
20
-182.0079
30
0
40
2.7559
1
35.3 SQ.FT
72
2
11
640.7795
21
-182.0079
31
0
73
2
0
TEXT
8
A-ANNO-TEXT
10
459.6772
20
-188.7008
30
0
40
2.7559
1
YASH ROOM
72
0
11
459.6772
21
-188.7008
31
0
73
2
0
TEXT
8
A-ANNO-TEXT
10
640.7795
20
-188.7008
30
0
40
2.7559
1
110.8 SQ.FT
72
2
11
640.7795
21
-188.7008
31
0
73
2
0
TEXT
8
A-ANNO-TEXT
10
459.6772
20
-195.3937
30
0
40
2.7559
1
ENTRANCE LOBBY
72
0
11
459.6772
21
-195.3937
31
0
73
2
0
TEXT
8
A-ANNO-TEXT
10
640.7795
20
-195.3937
30
0
40
2.7559
1
20.3 SQ.FT
72
2
11
640.7795
21
-195.3937
31
0
73
2
0
TEXT
8
A-ANNO-TEXT
10
459.6772
20
-202.0866
30
0
40
2.7559
1
KITCHEN
72
0
11
459.6772
21
-202.0866
31
0
73
2
0
TEXT
8
A-ANNO-TEXT
10
640.7795
20
-202.0866
30
0
40
2.7559
1
90.7 SQ.FT
72
2
11
640.7795
21
-202.0866
31
0
73
2
0
TEXT
8
A-ANNO-TEXT
10
459.6772
20
-208.7795
30
0
40
2.7559
1
DRY BALCONY
72
0
11
459.6772
21
-208.7795
31
0
73
2
0
TEXT
8
A-ANNO-TEXT
10
640.7795
20
-208.7795
30
0
40
2.7559
1
29.4 SQ.FT
72
2
11
640.7795
21
-208.7795
31
0
73
2
0
TEXT
8
A-ANNO-TEXT
10
459.6772
20
-215.4724
30
0
40
2.7559
1
SERVICE PLATFORM
72
0
11
459.6772
21
-215.4724
31
0
73
2
0
TEXT
8
A-ANNO-TEXT
10
640.7795
20
-215.4724
30
0
40
2.7559
1
22.5 SQ.FT
72
2
11
640.7795
21
-215.4724
31
0
73
2
0
TEXT
8
A-ANNO-TEXT
10
459.6772
20
-222.1654
30
0
40
2.7559
1
COMMON TOILET
72
0
11
459.6772
21
-222.1654
31
0
73
2
0
TEXT
8
A-ANNO-TEXT
10
640.7795
20
-222.1654
30
0
40
2.7559
1
36.0 SQ.FT
72
2
11
640.7795
21
-222.1654
31
0
73
2
0
TEXT
8
A-ANNO-TEXT
10
459.6772
20
-228.8583
30
0
40
2.7559
1
TOILET (BHAGYESH)
72
0
11
459.6772
21
-228.8583
31
0
73
2
0
TEXT
8
A-ANNO-TEXT
10
640.7795
20
-228.8583
30
0
40
2.7559
1
36.7 SQ.FT
72
2
11
640.7795
21
-228.8583
31
0
73
2
0
TEXT
8
A-ANNO-TEXT
10
459.6772
20
-235.5512
30
0
40
2.7559
1
BHAGYESH ROOM
72
0
11
459.6772
21
-235.5512
31
0
73
2
0
TEXT
8
A-ANNO-TEXT
10
640.7795
20
-235.5512
30
0
40
2.7559
1
125.5 SQ.FT
72
2
11
640.7795
21
-235.5512
31
0
73
2
0
TEXT
8
A-ANNO-TEXT
10
459.6772
20
-242.2441
30
0
40
2.7559
1
BALCONY (LIVING)
72
0
11
459.6772
21
-242.2441
31
0
73
2
0
TEXT
8
A-ANNO-TEXT
10
640.7795
20
-242.2441
30
0
40
2.7559
1
42.8 SQ.FT
72
2
11
640.7795
21
-242.2441
31
0
73
2
0
TEXT
8
A-ANNO-TEXT
10
459.6772
20
-248.9370
30
0
40
2.7559
1
BALCONY (BHAGYESH)
72
0
11
459.6772
21
-248.9370
31
0
73
2
0
TEXT
8
A-ANNO-TEXT
10
640.7795
20
-248.9370
30
0
40
2.7559
1
29.5 SQ.FT
72
2
11
640.7795
21
-248.9370
31
0
73
2
0
LINE
8
A-ANNO-TEXT
10
593.5354
20
-252.4803
30
0
11
640.7795
21
-252.4803
31
0
0
TEXT
8
A-ANNO-TEXT
10
459.6772
20
-256.4173
30
0
40
2.9528
1
TOTAL OF ZONES ABOVE
72
0
11
459.6772
21
-256.4173
31
0
73
2
0
TEXT
8
A-ANNO-TEXT
10
640.7795
20
-256.4173
30
0
40
2.9528
1
907.4 SQ.FT
72
2
11
640.7795
21
-256.4173
31
0
73
2
0
TEXT
8
A-ANNO-TEXT
10
459.6772
20
-275.3150
30
0
40
4.7244
1
NOTES
72
0
11
459.6772
21
-275.3150
31
0
73
2
0
LINE
8
A-ANNO-TEXT
10
459.6772
20
-280.0394
30
0
11
640.7795
21
-280.0394
31
0
0
TEXT
8
A-ANNO-TEXT
10
459.6772
20
-289.0945
30
0
40
2.7559
1
1. ALL DIMENSIONS IN FEET-INCHES. DO NOT SCALE DRAWING.
72
0
11
459.6772
21
-289.0945
31
0
73
2
0
TEXT
8
A-ANNO-TEXT
10
459.6772
20
-295.7874
30
0
40
2.7559
1
2. ROOM SIZES ARE CLEAR INTERNAL DIMENSIONS.
72
0
11
459.6772
21
-295.7874
31
0
73
2
0
TEXT
8
A-ANNO-TEXT
10
459.6772
20
-302.4803
30
0
40
2.7559
1
3. WALLS 0'-5" THK. UNLESS DIMENSIONED OTHERWISE.
72
0
11
459.6772
21
-302.4803
31
0
73
2
0
TEXT
8
A-ANNO-TEXT
10
459.6772
20
-309.1732
30
0
40
2.7559
1
4. FLOOR TO CEILING 10'-0". DOOR / OPENING HEAD 7'-0".
72
0
11
459.6772
21
-309.1732
31
0
73
2
0
TEXT
8
A-ANNO-TEXT
10
459.6772
20
-315.8661
30
0
40
2.7559
1
5. ROOM SIZES FROM DEVELOPER PLAN 'OPTION 1'. ROOM POSITIONS
72
0
11
459.6772
21
-315.8661
31
0
73
2
0
TEXT
8
A-ANNO-TEXT
10
459.6772
20
-322.5591
30
0
40
2.7559
1
   TRACED FROM THAT PLAN - VERIFY ON SITE BEFORE FABRICATION.
72
0
11
459.6772
21
-322.5591
31
0
73
2
0
TEXT
8
A-ANNO-TEXT
10
459.6772
20
-329.2520
30
0
40
2.7559
1
6. DOOR AND GLAZING SIZES / POSITIONS NOMINAL, NOT MEASURED.
72
0
11
459.6772
21
-329.2520
31
0
73
2
0
TEXT
8
A-ANNO-TEXT
10
459.6772
20
-335.9449
30
0
40
2.7559
1
7. NORTH AS PER DEVELOPER PLAN - TO BE CONFIRMED ON SITE.
72
0
11
459.6772
21
-335.9449
31
0
73
2
0
POLYLINE
8
A-ANNO-TTLB
66
1
10
0
20
0
30
0
70
1
0
VERTEX
8
A-ANNO-TTLB
10
459.6772
20
-358.3858
30
0
0
VERTEX
8
A-ANNO-TTLB
10
640.7795
20
-358.3858
30
0
0
VERTEX
8
A-ANNO-TTLB
10
640.7795
20
-430.0394
30
0
0
VERTEX
8
A-ANNO-TTLB
10
459.6772
20
-430.0394
30
0
0
SEQEND
8
A-ANNO-TTLB
0
LINE
8
A-ANNO-TTLB
10
504.9528
20
-358.3858
30
0
11
504.9528
21
-430.0394
31
0
0
TEXT
8
A-ANNO-TEXT
10
462.8268
20
-363.5039
30
0
40
2.5591
1
PROJECT
72
0
11
462.8268
21
-363.5039
31
0
73
2
0
TEXT
8
A-ANNO-TEXT
10
508.8898
20
-363.5039
30
0
40
3.1496
1
RESIDENTIAL FLAT - PUNE
72
0
11
508.8898
21
-363.5039
31
0
73
2
0
LINE
8
A-ANNO-TTLB
10
459.6772
20
-368.6220
30
0
11
640.7795
21
-368.6220
31
0
0
TEXT
8
A-ANNO-TEXT
10
462.8268
20
-373.7402
30
0
40
2.5591
1
DRAWING
72
0
11
462.8268
21
-373.7402
31
0
73
2
0
TEXT
8
A-ANNO-TEXT
10
508.8898
20
-373.7402
30
0
40
3.1496
1
FLOOR PLAN - OPTION 1
72
0
11
508.8898
21
-373.7402
31
0
73
2
0
LINE
8
A-ANNO-TTLB
10
459.6772
20
-378.8583
30
0
11
640.7795
21
-378.8583
31
0
0
TEXT
8
A-ANNO-TEXT
10
462.8268
20
-383.9764
30
0
40
2.5591
1
CARPET AREA
72
0
11
462.8268
21
-383.9764
31
0
73
2
0
TEXT
8
A-ANNO-TEXT
10
508.8898
20
-383.9764
30
0
40
3.1496
1
940 SQ.FT (AS PER DEVELOPER PLAN)
72
0
11
508.8898
21
-383.9764
31
0
73
2
0
LINE
8
A-ANNO-TTLB
10
459.6772
20
-389.0945
30
0
11
640.7795
21
-389.0945
31
0
0
TEXT
8
A-ANNO-TEXT
10
462.8268
20
-394.2126
30
0
40
2.5591
1
SCALE
72
0
11
462.8268
21
-394.2126
31
0
73
2
0
TEXT
8
A-ANNO-TEXT
10
508.8898
20
-394.2126
30
0
40
3.1496
1
GRAPHIC - SEE SCALE BAR
72
0
11
508.8898
21
-394.2126
31
0
73
2
0
LINE
8
A-ANNO-TTLB
10
459.6772
20
-399.3307
30
0
11
640.7795
21
-399.3307
31
0
0
TEXT
8
A-ANNO-TEXT
10
462.8268
20
-404.4488
30
0
40
2.5591
1
UNITS
72
0
11
462.8268
21
-404.4488
31
0
73
2
0
TEXT
8
A-ANNO-TEXT
10
508.8898
20
-404.4488
30
0
40
3.1496
1
FEET-INCHES (DXF: INCHES)
72
0
11
508.8898
21
-404.4488
31
0
73
2
0
LINE
8
A-ANNO-TTLB
10
459.6772
20
-409.5669
30
0
11
640.7795
21
-409.5669
31
0
0
TEXT
8
A-ANNO-TEXT
10
462.8268
20
-414.6850
30
0
40
2.5591
1
DATE
72
0
11
462.8268
21
-414.6850
31
0
73
2
0
TEXT
8
A-ANNO-TEXT
10
508.8898
20
-414.6850
30
0
40
3.1496
1
2026-10-10
72
0
11
508.8898
21
-414.6850
31
0
73
2
0
LINE
8
A-ANNO-TTLB
10
459.6772
20
-419.8031
30
0
11
640.7795
21
-419.8031
31
0
0
TEXT
8
A-ANNO-TEXT
10
462.8268
20
-424.9213
30
0
40
2.5591
1
SOURCE
72
0
11
462.8268
21
-424.9213
31
0
73
2
0
TEXT
8
A-ANNO-TEXT
10
508.8898
20
-424.9213
30
0
40
3.1496
1
GENERATED FROM roomData.js
72
0
11
508.8898
21
-424.9213
31
0
73
2
0
POLYLINE
8
A-ANNO-TTLB
66
1
10
0
20
0
30
0
70
1
0
VERTEX
8
A-ANNO-TTLB
10
-77.5472
20
84.1339
30
0
0
VERTEX
8
A-ANNO-TTLB
10
662.1181
20
84.1339
30
0
0
VERTEX
8
A-ANNO-TTLB
10
662.1181
20
-535.5472
30
0
0
VERTEX
8
A-ANNO-TTLB
10
-77.5472
20
-535.5472
30
0
0
SEQEND
8
A-ANNO-TTLB
0
ENDSEC
0
EOF
